<?xml version="1.0" standalone="no"?>
<!DOCTYPE svg PUBLIC "-//W3C//DTD SVG 1.1//EN" "http://www.w3.org/Graphics/SVG/1.1/DTD/svg11.dtd">
<!--Generator: Xara Designer (www.xara.com), SVG filter version: 6.7.0.0-->
<svg fill="none" fill-rule="evenodd" stroke="black" stroke-width="0.501" stroke-linejoin="bevel" stroke-miterlimit="10" font-family="Times New Roman" font-size="16" style="font-variant-ligatures:none" xmlns:xlink="http://www.w3.org/1999/xlink" xmlns="http://www.w3.org/2000/svg" version="1.1" overflow="visible" width="715.91pt" height="375.002pt" viewBox="284.768 -375.002 715.91 375.002">
 <defs>
  <linearGradient id="LinearGradient" gradientUnits="userSpaceOnUse" x1="0" y1="0" x2="0" y2="-374.664" gradientTransform="matrix(-0.771317 -0.636475 0.636475 -0.771317 113.036 -149.611)">
   <stop offset="0" stop-color="#512472"/>
   <stop offset="1" stop-color="#441d53"/>
  </linearGradient>
  <linearGradient id="LinearGradient_1" gradientUnits="userSpaceOnUse" x1="0" y1="0" x2="-307.583" y2="307.583" gradientTransform="translate(987.584 11.952)">
   <stop offset="0" stop-color="#5dc5ff"/>
   <stop offset="1" stop-color="#375ee6"/>
  </linearGradient>
 </defs>
 <g id="Layer 1" transform="scale(1 -1)">
  <g id="Group" stroke="none">
   <ellipse rx="187.522" ry="187.522" transform="translate(472.268 187.501) rotate(140.471)" stroke-width="0.418" stroke-linejoin="miter" fill="url(#LinearGradient)"/>
   <path d="M 604.54,209.517 L 604.322,209.517 L 580.163,233.677 C 579.733,234.119 579.397,234.642 579.173,235.214 C 578.958,235.776 578.848,236.372 578.843,236.971 L 578.843,292.758 C 578.855,298.44 576.603,303.893 572.585,307.912 C 568.566,311.93 563.113,314.182 557.431,314.171 L 542.276,314.171 C 536.6,314.145 531.162,311.897 527.122,307.912 C 523.075,303.912 520.817,298.447 520.862,292.758 L 520.862,292.427 L 485.171,327.02 C 476.742,335.056 463.443,334.909 455.192,326.69 L 334.396,205.895 C 332.442,203.896 330.877,201.55 329.784,198.976 C 326.461,190.963 328.277,181.738 334.396,175.585 L 345.926,164.165 C 354.222,155.864 367.661,155.816 376.016,164.055 L 468.81,255.532 C 470.654,257.289 473.554,257.289 475.399,255.532 L 566.325,164.604 C 568.082,162.76 568.082,159.859 566.325,158.014 L 555.123,146.814 C 553.278,145.056 550.38,145.056 548.535,146.814 L 484.623,208.75 C 480.592,212.654 475.19,214.823 469.577,214.788 C 463.969,214.76 458.599,212.509 454.643,208.53 L 393.367,146.924 C 389.381,142.884 387.136,137.444 387.107,131.77 C 387.084,126.084 389.337,120.626 393.368,116.616 L 404.677,105.304 C 412.972,97.004 426.411,96.955 434.766,105.194 L 467.822,137.81 C 469.666,139.567 472.565,139.567 474.41,137.81 L 507.244,105.523 C 507.674,105.083 508.01,104.559 508.233,103.986 C 508.448,103.425 508.559,102.83 508.562,102.229 C 508.534,100.987 508.022,99.804 507.134,98.934 L 474.629,66.319 C 474.52,66.319 474.41,66.429 474.19,66.429 C 471.769,66.397 469.406,65.673 467.382,64.343 C 465.371,62.999 463.802,61.089 462.879,58.851 C 461.952,56.63 461.722,54.18 462.221,51.823 C 462.688,49.461 463.831,47.287 465.514,45.565 C 467.206,43.841 469.395,42.689 471.774,42.271 C 474.133,41.822 476.569,42.052 478.803,42.93 C 481.038,43.853 482.949,45.419 484.293,47.431 C 485.638,49.448 486.362,51.815 486.38,54.241 L 486.38,54.46 L 519.104,87.185 C 521.121,89.175 522.693,91.57 523.717,94.213 C 525.912,99.485 525.912,105.413 523.717,110.684 C 522.612,113.278 521.006,115.629 518.994,117.603 L 486.16,149.888 C 477.806,158.087 464.425,158.087 456.071,149.888 L 422.906,117.164 C 421.061,115.406 418.163,115.406 416.318,117.164 L 405.007,128.476 C 403.25,130.321 403.25,133.219 405.007,135.064 L 466.284,196.671 C 467.154,197.556 468.335,198.068 469.577,198.097 C 470.807,198.112 471.991,197.637 472.872,196.779 L 536.785,134.734 C 540.845,130.876 546.227,128.715 551.829,128.695 C 557.439,128.725 562.81,130.975 566.763,134.954 L 577.966,146.155 C 581.95,150.195 584.198,155.634 584.225,161.31 C 584.249,166.995 581.994,172.452 577.966,176.464 L 486.928,267.501 C 478.633,275.799 465.195,275.85 456.839,267.611 L 364.046,176.135 C 362.201,174.378 359.302,174.378 357.457,176.135 L 346.036,187.664 C 344.279,189.509 344.279,192.409 346.036,194.253 L 466.833,315.051 C 467.703,315.937 468.886,316.449 470.128,316.477 C 471.357,316.493 472.542,316.018 473.422,315.16 L 537.444,253.224 L 537.444,292.758 C 537.48,293.977 537.947,295.144 538.763,296.052 C 539.643,296.911 540.827,297.384 542.057,297.369 L 557.1,297.369 C 558.319,297.335 559.487,296.867 560.395,296.052 C 561.259,295.167 561.767,293.994 561.822,292.758 L 561.822,236.971 C 561.851,231.297 564.096,225.857 568.082,221.817 L 592.132,197.768 C 592.132,197.657 592.022,197.438 592.022,197.33 C 592.054,194.906 592.779,192.543 594.107,190.52 C 595.484,188.537 597.385,186.978 599.599,186.018 C 604.174,184.15 609.426,185.234 612.887,188.763 C 614.609,190.456 615.762,192.644 616.182,195.023 C 616.629,197.381 616.399,199.816 615.521,202.051 C 614.599,204.286 613.031,206.196 611.02,207.541 C 609.128,208.879 606.857,209.572 604.54,209.517 Z" stroke-width="0.139" fill="#ffffff" marker-start="none" marker-end="none"/>
   <g id="Group_1">
    <path d="M 693.826,42.864 C 613.986,108.745 602.658,227.013 668.539,306.852 C 734.421,386.693 852.688,398.021 932.529,332.139 C 1004.95,272.381 1021,169.525 974.193,91.336 L 990.181,19.825 C 991.479,14.023 986.261,8.84 980.468,10.174 L 909.451,26.533 C 843.284,-13.013 756.656,-8.984 693.826,42.864 Z" stroke-width="0.675" fill-rule="evenodd" marker-start="none" marker-end="none" fill="url(#LinearGradient_1)"/>
    <path d="M 740.508,118.684 L 740.508,234.37 C 740.508,236.77 741.573,239.048 743.417,240.583 L 809.666,295.833 C 812.668,298.336 817.03,298.336 820.031,295.833 L 886.281,240.583 C 888.125,239.048 889.191,236.77 889.191,234.37 L 889.191,118.684 C 889.191,114.218 885.565,110.593 881.1,110.593 L 748.599,110.593 C 744.133,110.593 740.508,114.218 740.508,118.684 Z" stroke-width="0.139" fill="#ffffff" marker-start="none" marker-end="none"/>
   </g>
  </g>
 </g>
</svg>
