<?xml version="1.0" standalone="no"?>
<!DOCTYPE svg PUBLIC "-//W3C//DTD SVG 1.1//EN" "http://www.w3.org/Graphics/SVG/1.1/DTD/svg11.dtd">
<!--Generator: Xara Designer (www.xara.com), SVG filter version: 6.7.0.0-->
<svg fill="none" fill-rule="evenodd" stroke="black" stroke-width="0.501" stroke-linejoin="bevel" stroke-miterlimit="10" font-family="Times New Roman" font-size="16" style="font-variant-ligatures:none" xmlns:xlink="http://www.w3.org/1999/xlink" xmlns="http://www.w3.org/2000/svg" version="1.1" overflow="visible" width="74.999pt" height="74.999pt" viewBox="573.208 -237.374 74.999 74.999">
 <defs>
  <linearGradient id="LinearGradient" gradientUnits="userSpaceOnUse" x1="0" y1="0" x2="85.985" y2="0" gradientTransform="translate(645.335 165.325) rotate(135.251) skewX(0.502273)">
   <stop offset="0" stop-color="#5dc5ff"/>
   <stop offset="1" stop-color="#375ee6"/>
  </linearGradient>
 </defs>
 <g id="Layer 1" transform="scale(1 -1)">
  <g id="Group">
   <rect x="573.209" y="162.376" width="74.999" height="74.999" stroke="none" stroke-width="0.596" stroke-linejoin="miter" stroke-linecap="round"/>
   <g id="Group_1">
    <path d="M 609.316,163 C 600.596,163.003 592.209,163.028 590.775,163.076 C 587.213,163.193 582.207,163.206 578.282,164.696 C 576.836,165.245 575.59,166.269 574.442,167.306 C 574.2,167.524 573.947,167.76 573.812,168.056 C 573.682,168.341 573.691,168.674 573.662,168.986 C 573.469,171.027 573.482,173.086 573.482,175.136 C 573.482,177.196 573.472,179.264 573.662,181.316 C 573.846,183.301 574.504,185.234 574.592,187.226 C 574.727,190.302 574.003,193.364 573.962,196.445 C 573.776,198.46 573.754,200.517 573.909,202.597 L 573.915,201.976 L 573.91,202.581 L 573.957,202.613 C 574.011,203.737 574.035,203.955 574.061,204.173 C 576.433,224.402 594.778,238.894 615.006,236.521 C 634.912,234.186 649.263,216.384 647.454,196.541 C 647.311,193.23 646.687,190.334 646.824,187.225 C 646.912,185.233 647.57,183.3 647.754,181.315 C 647.944,179.263 647.934,177.195 647.934,175.135 C 647.934,173.085 647.947,171.026 647.754,168.985 C 647.725,168.673 647.734,168.34 647.604,168.055 C 647.469,167.759 647.216,167.523 646.974,167.305 C 645.826,166.268 644.58,165.244 643.134,164.695 C 639.209,163.205 634.203,163.192 630.641,163.075 C 629.21,163.027 620.867,163.002 612.161,163 C 611.224,162.964 610.281,162.964 609.316,163 Z" stroke="none" stroke-width="0.376" fill-rule="evenodd" marker-start="none" marker-end="none" fill="url(#LinearGradient)"/>
    <path d="M 624.559,194.479 L 596.856,194.479" fill="none" stroke="#ffffff" stroke-width="3" stroke-linejoin="miter" stroke-linecap="round"/>
    <path d="M 589.594,165.961 C 588.932,166.232 588.292,166.569 587.809,167.077 C 587.173,167.744 583.749,174.308 582.606,178.195 C 581.088,183.351 579.697,188.564 578.765,193.858 C 578.746,193.923 578.732,193.989 578.723,194.056 C 578.542,194.894 578.535,194.935 578.528,194.976 C 578.456,195.392 578.392,195.811 578.347,196.251 C 576.641,208.965 582.707,222.033 594.61,228.649 C 610.131,237.274 629.73,231.678 638.357,216.157 C 641.536,210.434 642.783,204.158 642.312,198.072 C 642.315,197.81 642.315,197.54 642.316,197.272 C 642.317,196.503 642.212,195.734 642.082,194.976 C 641.109,189.303 639.629,183.717 638.004,178.195 C 636.861,174.308 633.437,167.744 632.801,167.077 C 632.302,166.554 631.64,166.209 630.956,165.935 C 630.85,165.931 620.867,165.852 612.161,165.85 L 609.316,165.85 C 600.596,165.853 590.002,165.949 589.594,165.961 Z M 624.408,175.033 C 638.481,182.854 643.555,200.627 635.734,214.7 C 627.913,228.773 610.14,233.847 596.067,226.026 C 581.994,218.205 576.92,200.432 584.741,186.359 C 592.562,172.286 610.335,167.212 624.408,175.033 Z" stroke="none" fill="#ffffff" stroke-width="0.376" fill-rule="evenodd" marker-start="none" marker-end="none"/>
   </g>
  </g>
 </g>
</svg>
