<?xml version="1.0" standalone="no"?>
<!DOCTYPE svg PUBLIC "-//W3C//DTD SVG 1.1//EN" "http://www.w3.org/Graphics/SVG/1.1/DTD/svg11.dtd">
<!--Generator: Xara Designer (www.xara.com), SVG filter version: 6.7.0.0-->
<svg fill="none" fill-rule="evenodd" stroke="black" stroke-width="0.501" stroke-linejoin="bevel" stroke-miterlimit="10" font-family="Times New Roman" font-size="16" style="font-variant-ligatures:none" xmlns:xlink="http://www.w3.org/1999/xlink" xmlns="http://www.w3.org/2000/svg" version="1.1" overflow="visible" width="74.999pt" height="74.999pt" viewBox="480.799 -237.374 74.999 74.999">
 <defs>
  <linearGradient id="LinearGradient" gradientUnits="userSpaceOnUse" x1="0" y1="0" x2="86.045" y2="0" gradientTransform="translate(552.413 164.765) rotate(134.364) skewX(-1.27272)">
   <stop offset="0" stop-color="#5dc5ff"/>
   <stop offset="1" stop-color="#375ee6"/>
  </linearGradient>
  <linearGradient id="LinearGradient_1" gradientUnits="userSpaceOnUse" x1="0" y1="0" x2="86.045" y2="0" gradientTransform="translate(552.413 164.765) rotate(134.364) skewX(-1.27272)">
   <stop offset="0" stop-color="#5dc5ff"/>
   <stop offset="1" stop-color="#375ee6"/>
  </linearGradient>
 </defs>
 <g id="inactive" transform="scale(1 -1)">
  <path d="M 480.799,167.466 L 480.799,193.285 C 480.799,196.095 483.08,198.376 485.89,198.376 L 550.707,198.376 C 553.517,198.376 555.798,196.095 555.798,193.285 L 555.798,167.466 C 555.798,164.656 553.517,162.375 550.707,162.375 L 485.89,162.375 C 483.08,162.375 480.799,164.656 480.799,167.466 Z M 552.798,167.466 L 552.798,193.285 C 552.798,194.438 551.86,195.376 550.707,195.376 L 485.89,195.376 C 484.736,195.376 483.799,194.438 483.799,193.285 L 483.799,167.466 C 483.799,166.312 484.736,165.375 485.89,165.375 L 550.707,165.375 C 551.86,165.375 552.798,166.312 552.798,167.466 Z M 503.285,183.087 L 503.285,188.36 C 503.285,189.762 504.422,190.9 505.825,190.9 L 530.77,190.9 C 532.172,190.9 533.31,189.762 533.31,188.36 L 533.31,183.087 C 533.31,181.684 532.172,180.547 530.77,180.547 L 505.825,180.547 C 504.422,180.547 503.285,181.684 503.285,183.087 Z M 530.31,183.547 L 530.31,187.9 L 506.285,187.9 L 506.285,183.547 L 530.31,183.547 Z M 500.931,204.477 C 493.426,208.816 493.428,217.786 500.931,222.124 C 506.436,225.309 506.437,231.392 500.931,234.576 C 500.214,234.991 499.969,235.909 500.383,236.625 C 500.798,237.342 501.716,237.587 502.432,237.173 C 509.936,232.834 509.936,223.868 502.432,219.527 C 496.928,216.344 496.926,210.258 502.432,207.074 C 503.149,206.66 503.394,205.741 502.98,205.025 C 502.566,204.308 501.647,204.063 500.931,204.477 Z M 517.547,204.477 C 510.042,208.816 510.044,217.786 517.547,222.124 C 523.052,225.309 523.053,231.392 517.547,234.576 C 516.83,234.991 516.585,235.909 516.999,236.625 C 517.414,237.342 518.332,237.587 519.048,237.173 C 526.552,232.834 526.552,223.868 519.048,219.527 C 513.544,216.344 513.542,210.258 519.048,207.074 C 519.765,206.66 520.01,205.741 519.596,205.025 C 519.182,204.308 518.263,204.063 517.547,204.477 Z M 534.163,204.477 C 526.658,208.816 526.66,217.786 534.163,222.124 C 539.668,225.309 539.669,231.392 534.163,234.576 C 533.446,234.991 533.201,235.909 533.615,236.625 C 534.03,237.342 534.948,237.587 535.664,237.173 C 543.168,232.834 543.168,223.868 535.664,219.527 C 530.16,216.344 530.158,210.258 535.664,207.074 C 536.381,206.66 536.626,205.741 536.212,205.025 C 535.798,204.308 534.879,204.063 534.163,204.477 Z" stroke-width="0.376" fill-rule="evenodd" stroke="none" marker-start="none" marker-end="none" fill="url(#LinearGradient)"/>
 </g>
 <g id="active-bg" transform="scale(1 -1)">
  <path d="M 480.799,167.466 L 480.799,193.285 C 480.799,196.095 483.08,198.376 485.89,198.376 L 550.707,198.376 C 553.517,198.376 555.798,196.095 555.798,193.285 L 555.798,167.466 C 555.798,164.656 553.517,162.375 550.707,162.375 L 485.89,162.375 C 483.08,162.375 480.799,164.656 480.799,167.466 Z M 500.931,204.477 C 493.426,208.816 493.428,217.786 500.931,222.124 C 506.436,225.309 506.437,231.392 500.931,234.576 C 500.214,234.991 499.969,235.909 500.383,236.625 C 500.798,237.342 501.716,237.587 502.432,237.173 C 509.936,232.834 509.936,223.868 502.432,219.527 C 496.928,216.344 496.926,210.258 502.432,207.074 C 503.149,206.66 503.394,205.741 502.98,205.025 C 502.566,204.308 501.647,204.063 500.931,204.477 Z M 517.547,204.477 C 510.042,208.816 510.044,217.786 517.547,222.124 C 523.052,225.309 523.053,231.392 517.547,234.576 C 516.83,234.991 516.585,235.909 516.999,236.625 C 517.414,237.342 518.332,237.587 519.048,237.173 C 526.552,232.834 526.552,223.868 519.048,219.527 C 513.544,216.344 513.542,210.258 519.048,207.074 C 519.765,206.66 520.01,205.741 519.596,205.025 C 519.182,204.308 518.263,204.063 517.547,204.477 Z M 534.163,204.477 C 526.658,208.816 526.66,217.786 534.163,222.124 C 539.668,225.309 539.669,231.392 534.163,234.576 C 533.446,234.991 533.201,235.909 533.615,236.625 C 534.03,237.342 534.948,237.587 535.664,237.173 C 543.168,232.834 543.168,223.868 535.664,219.527 C 530.16,216.344 530.158,210.258 535.664,207.074 C 536.381,206.66 536.626,205.741 536.212,205.025 C 535.798,204.308 534.879,204.063 534.163,204.477 Z" fill-rule="evenodd" stroke="none" stroke-width="0.376" marker-start="none" marker-end="none" fill="url(#LinearGradient_1)"/>
 </g>
 <g id="active-fg" transform="scale(1 -1)">
  <path d="M 503.285,183.087 L 503.285,188.36 C 503.285,189.762 504.422,190.9 505.825,190.9 L 530.77,190.9 C 532.172,190.9 533.31,189.762 533.31,188.36 L 533.31,183.087 C 533.31,181.684 532.172,180.547 530.77,180.547 L 505.825,180.547 C 504.422,180.547 503.285,181.684 503.285,183.087 Z M 530.31,183.547 L 530.31,187.9 L 506.285,187.9 L 506.285,183.547 L 530.31,183.547 Z" fill-rule="evenodd" stroke="none" stroke-width="0.5" fill="#ffffff" marker-start="none" marker-end="none"/>
 </g>
</svg>
