<?xml version="1.0" standalone="no"?>
<!DOCTYPE svg PUBLIC "-//W3C//DTD SVG 1.1//EN" "http://www.w3.org/Graphics/SVG/1.1/DTD/svg11.dtd">
<!--Generator: Xara Designer (www.xara.com), SVG filter version: 6.7.0.0-->
<svg fill="none" fill-rule="evenodd" stroke="black" stroke-width="0.501" stroke-linejoin="bevel" stroke-miterlimit="10" font-family="Times New Roman" font-size="16" style="font-variant-ligatures:none" xmlns:xlink="http://www.w3.org/1999/xlink" xmlns="http://www.w3.org/2000/svg" version="1.1" overflow="visible" width="75.001pt" height="74.999pt" viewBox="203.571 -237.374 75.001 74.999">
 <defs>
  <linearGradient id="LinearGradient" gradientUnits="userSpaceOnUse" x1="0" y1="0" x2="86.046" y2="0" gradientTransform="translate(275.187 164.765) rotate(134.365) skewX(-1.27082)">
   <stop offset="0" stop-color="#5dc5ff"/>
   <stop offset="1" stop-color="#375ee6"/>
  </linearGradient>
 </defs>
 <g id="Background" transform="scale(1 -1)">
  <path d="M 203.571,232.071 L 203.571,167.678 C 203.571,164.751 205.947,162.375 208.874,162.375 L 273.269,162.375 C 276.196,162.375 278.572,164.751 278.572,167.678 L 278.572,232.071 C 278.572,234.998 276.196,237.374 273.269,237.374 L 208.874,237.374 C 205.947,237.374 203.571,234.998 203.571,232.071 Z" fill-rule="evenodd" stroke="none" stroke-width="0.376" marker-start="none" marker-end="none" fill="url(#LinearGradient)"/>
 </g>
 <g id="Foreground" transform="scale(1 -1)">
  <path d="M 209.484,183.756 C 209.484,191.706 215.928,198.152 223.879,198.152 C 231.829,198.152 238.273,191.706 238.273,183.756 C 238.273,175.805 231.829,169.362 223.879,169.362 C 215.928,169.362 209.484,175.805 209.484,183.756 Z M 248.167,180.532 C 248.167,186.701 253.17,191.705 259.338,191.705 C 265.507,191.705 270.51,186.701 270.51,180.532 C 270.51,174.363 265.507,169.362 259.338,169.362 C 253.17,169.362 248.167,174.363 248.167,180.532 Z M 235.273,183.756 C 235.273,190.049 230.172,195.152 223.879,195.152 C 217.585,195.152 212.484,190.049 212.484,183.756 C 212.484,177.462 217.585,172.362 223.879,172.362 C 230.172,172.362 235.273,177.462 235.273,183.756 Z M 267.51,180.532 C 267.51,185.044 263.85,188.705 259.338,188.705 C 254.827,188.705 251.167,185.044 251.167,180.532 C 251.167,176.02 254.827,172.362 259.338,172.362 C 263.85,172.362 267.51,176.02 267.51,180.532 Z M 243.87,215.993 C 243.87,223.943 250.313,230.388 258.265,230.388 C 266.215,230.388 272.659,223.943 272.659,215.993 C 272.659,208.042 266.215,201.599 258.265,201.599 C 250.313,201.599 243.87,208.042 243.87,215.993 Z M 269.659,215.993 C 269.659,222.286 264.558,227.388 258.265,227.388 C 251.97,227.388 246.87,222.286 246.87,215.993 C 246.87,209.699 251.97,204.599 258.265,204.599 C 264.558,204.599 269.659,209.699 269.659,215.993 Z M 211.633,219.217 C 211.633,225.385 216.634,230.388 222.804,230.388 C 228.972,230.388 233.975,225.385 233.975,219.217 C 233.975,213.047 228.972,208.046 222.804,208.046 C 216.634,208.046 211.633,213.047 211.633,219.217 Z M 230.975,219.217 C 230.975,223.728 227.315,227.388 222.804,227.388 C 218.291,227.388 214.633,223.728 214.633,219.217 C 214.633,214.704 218.291,211.046 222.804,211.046 C 227.315,211.046 230.975,214.704 230.975,219.217 Z" fill-rule="evenodd" stroke="none" fill="#ffffff" stroke-width="0.5" marker-start="none" marker-end="none"/>
 </g>
</svg>
