<?xml version="1.0" standalone="no"?>
<!DOCTYPE svg PUBLIC "-//W3C//DTD SVG 1.1//EN" "http://www.w3.org/Graphics/SVG/1.1/DTD/svg11.dtd">
<!--Generator: Xara Designer (www.xara.com), SVG filter version: 6.7.0.0-->
<svg fill="none" fill-rule="evenodd" stroke="black" stroke-width="0.501" stroke-linejoin="bevel" stroke-miterlimit="10" font-family="Times New Roman" font-size="16" style="font-variant-ligatures:none" xmlns:xlink="http://www.w3.org/1999/xlink" xmlns="http://www.w3.org/2000/svg" version="1.1" overflow="visible" width="66.751pt" height="74.999pt" viewBox="669.74 -237.374 66.751 74.999">
 <defs>
  <linearGradient id="LinearGradient" gradientUnits="userSpaceOnUse" x1="0" y1="0" x2="81.556" y2="0" gradientTransform="translate(733.478 164.765) rotate(131.039) skewX(-7.92218)">
   <stop offset="0" stop-color="#5dc5ff"/>
   <stop offset="1" stop-color="#375ee6"/>
  </linearGradient>
 </defs>
 <g id="Background" transform="scale(1 -1)">
  <path d="M 669.74,232.071 L 669.74,167.678 C 669.74,164.751 672.116,162.375 675.043,162.375 L 731.188,162.375 C 734.115,162.375 736.491,164.751 736.491,167.678 L 736.491,232.071 C 736.491,234.998 734.115,237.374 731.188,237.374 L 675.043,237.374 C 672.116,237.374 669.74,234.998 669.74,232.071 Z" fill-rule="evenodd" stroke="none" stroke-width="0.376" marker-start="none" marker-end="none" fill="url(#LinearGradient)"/>
 </g>
 <g id="Foreground" transform="scale(1 -1)">
  <path d="M 694.689,215.249 C 694.689,216.076 695.361,216.749 696.189,216.749 L 710.041,216.749 C 710.868,216.749 711.541,216.076 711.541,215.249 C 711.541,214.421 710.868,213.749 710.041,213.749 L 696.189,213.749 C 695.361,213.749 694.689,214.421 694.689,215.249 Z M 669.741,223.352 L 669.741,226.352 L 736.491,226.352 L 736.491,223.352 L 669.741,223.352 Z" fill-rule="evenodd" stroke="none" fill="#ffffff" stroke-width="0.5" marker-start="none" marker-end="none"/>
 </g>
</svg>
