<?xml version="1.0" standalone="no"?>
<!DOCTYPE svg PUBLIC "-//W3C//DTD SVG 1.1//EN" "http://www.w3.org/Graphics/SVG/1.1/DTD/svg11.dtd">
<!--Generator: Xara Designer (www.xara.com), SVG filter version: 6.7.0.0-->
<svg fill="none" fill-rule="evenodd" stroke="black" stroke-width="0.501" stroke-linejoin="bevel" stroke-miterlimit="10" font-family="Times New Roman" font-size="16" style="font-variant-ligatures:none" xmlns:xlink="http://www.w3.org/1999/xlink" xmlns="http://www.w3.org/2000/svg" version="1.1" overflow="visible" width="74.999pt" height="75.001pt" viewBox="295.95 -237.375 74.999 75.001">
 <defs>
  <linearGradient id="LinearGradient" gradientUnits="userSpaceOnUse" x1="0" y1="0" x2="86.046" y2="0" gradientTransform="translate(367.564 164.764) rotate(134.363) skewX(-1.27458)">
   <stop offset="0" stop-color="#5dc5ff"/>
   <stop offset="1" stop-color="#375ee6"/>
  </linearGradient>
 </defs>
 <g id="Background" transform="scale(1 -1)">
  <path d="M 305.041,162.607 C 300.259,165.635 300.259,171.876 305.041,174.904 C 307.966,176.757 307.964,180.28 305.041,182.131 C 304.341,182.574 304.133,183.502 304.576,184.201 C 305.019,184.901 305.947,185.109 306.646,184.666 C 311.427,181.638 311.428,175.399 306.646,172.369 C 303.722,170.518 303.722,166.993 306.646,165.142 C 307.345,164.699 307.554,163.772 307.111,163.072 C 306.668,162.373 305.741,162.164 305.041,162.607 Z M 323.465,162.607 C 318.683,165.635 318.683,171.876 323.465,174.904 C 326.39,176.757 326.388,180.28 323.465,182.131 C 322.765,182.574 322.557,183.502 323,184.201 C 323.443,184.901 324.371,185.109 325.07,184.666 C 329.851,181.638 329.852,175.399 325.07,172.369 C 322.146,170.518 322.146,166.993 325.07,165.142 C 325.769,164.699 325.978,163.772 325.535,163.072 C 325.092,162.373 324.165,162.164 323.465,162.607 Z M 341.889,162.607 C 337.107,165.635 337.107,171.876 341.889,174.904 C 344.814,176.757 344.812,180.28 341.889,182.131 C 341.189,182.574 340.981,183.502 341.424,184.201 C 341.867,184.901 342.795,185.109 343.494,184.666 C 348.275,181.638 348.276,175.399 343.494,172.369 C 340.57,170.518 340.57,166.993 343.494,165.142 C 344.193,164.699 344.402,163.772 343.959,163.072 C 343.516,162.373 342.589,162.164 341.889,162.607 Z M 360.313,162.607 C 355.531,165.635 355.531,171.876 360.313,174.904 C 363.238,176.757 363.236,180.28 360.313,182.131 C 359.613,182.574 359.405,183.502 359.848,184.201 C 360.291,184.901 361.219,185.109 361.918,184.666 C 366.699,181.638 366.7,175.399 361.918,172.369 C 358.994,170.518 358.994,166.993 361.918,165.142 C 362.617,164.699 362.826,163.772 362.383,163.072 C 361.94,162.373 361.013,162.164 360.313,162.607 Z M 295.95,187.857 L 295.95,197.796 C 295.95,200.606 298.231,202.887 301.041,202.887 L 301.425,202.887 L 321.468,220.046 L 321.468,237.375 L 345.461,237.375 L 345.461,220.048 L 365.504,202.887 L 365.858,202.887 C 368.668,202.887 370.949,200.606 370.949,197.796 L 370.949,187.857 L 295.95,187.857 Z" fill-rule="evenodd" stroke="none" stroke-width="0.376" marker-start="none" marker-end="none" fill="url(#LinearGradient)"/>
 </g>
 <g id="Foreground" transform="scale(1 -1)">
  <path d="M 301.425,202.887 L 304.929,205.887 L 362,205.887 L 365.504,202.887 L 301.425,202.887 Z M 318.939,217.881 L 321.468,220.046 L 321.468,220.881 L 345.461,220.881 L 345.461,220.048 L 347.991,217.881 L 318.939,217.881 Z" fill-rule="evenodd" stroke="none" fill="#ffffff" stroke-width="0.5" marker-start="none" marker-end="none"/>
 </g>
</svg>
