<?xml version="1.0" standalone="no"?>
<!DOCTYPE svg PUBLIC "-//W3C//DTD SVG 1.1//EN" "http://www.w3.org/Graphics/SVG/1.1/DTD/svg11.dtd">
<!--Generator: Xara Designer (www.xara.com), SVG filter version: 6.7.0.0-->
<svg fill="none" fill-rule="evenodd" stroke="black" stroke-width="0.501" stroke-linejoin="bevel" stroke-miterlimit="10" font-family="Times New Roman" font-size="16" style="font-variant-ligatures:none" xmlns:xlink="http://www.w3.org/1999/xlink" xmlns="http://www.w3.org/2000/svg" version="1.1" overflow="visible" width="74.999pt" height="74.999pt" viewBox="942.843 -237.374 74.999 74.999">
 <defs>
  <linearGradient id="LinearGradient" gradientUnits="userSpaceOnUse" x1="0" y1="0" x2="79.163" y2="0" gradientTransform="translate(1008.6 164.765) rotate(129.008) skewX(-11.9846)">
   <stop offset="0" stop-color="#5dc5ff"/>
   <stop offset="1" stop-color="#375ee6"/>
  </linearGradient>
 </defs>
 <g id="Layer 1" transform="scale(1 -1)">
  <g id="Group" stroke="none">
   <rect x="942.844" y="162.376" width="74.999" height="74.999" stroke-width="0.596" stroke-linejoin="miter" stroke-linecap="round"/>
   <g id="Group_1">
    <rect x="949.968" y="162.376" width="60.748" height="74.999" rx="5.30330007902533" ry="5.30330007902533" stroke-width="0.376" fill-rule="evenodd" fill="url(#LinearGradient)"/>
    <path d="M 970.384,180.179 C 968.274,181.516 966.518,183.202 965.144,185.113 C 967.654,186.917 971.408,186.551 973.413,184.016 C 976.956,179.533 983.999,179.54 987.538,184.016 C 989.564,186.578 993.377,186.925 995.887,185.054 C 990.058,177.011 978.887,174.788 970.384,180.179 Z M 975.766,185.877 C 972.793,189.638 967.353,190.241 963.588,187.687 C 960.707,193.443 960.825,200.524 964.52,206.353 C 970.125,215.195 981.852,217.822 990.694,212.217 C 999.018,206.939 1001.83,196.236 997.457,187.622 C 993.689,190.252 988.183,189.669 985.185,185.877 C 982.845,182.917 978.109,182.912 975.766,185.877 Z M 973.58,191.287 C 973.925,192.039 973.595,192.93 972.842,193.276 C 970.82,194.204 970.231,195.369 970.231,196.181 C 970.231,197.005 970.837,198.165 972.842,199.085 C 975.469,200.291 977.202,202.328 977.201,204.718 C 977.2,207.095 975.482,209.136 972.842,210.348 C 972.09,210.693 971.199,210.363 970.853,209.61 C 970.508,208.858 970.838,207.967 971.591,207.621 C 973.611,206.694 974.201,205.529 974.201,204.717 C 974.202,203.892 973.597,202.733 971.591,201.812 C 968.966,200.607 967.231,198.571 967.231,196.181 C 967.231,193.804 968.949,191.762 971.591,190.549 C 972.343,190.204 973.234,190.534 973.58,191.287 Z M 981.699,191.287 C 982.044,192.039 981.714,192.93 980.961,193.276 C 978.939,194.204 978.35,195.369 978.35,196.181 C 978.35,197.005 978.956,198.165 980.961,199.085 C 983.588,200.291 985.321,202.328 985.32,204.718 C 985.319,207.095 983.601,209.136 980.961,210.348 C 980.209,210.693 979.318,210.363 978.972,209.61 C 978.627,208.858 978.957,207.967 979.71,207.621 C 981.73,206.694 982.32,205.529 982.32,204.717 C 982.321,203.892 981.716,202.733 979.71,201.812 C 977.085,200.607 975.35,198.571 975.35,196.181 C 975.35,193.804 977.068,191.762 979.71,190.549 C 980.462,190.204 981.353,190.534 981.699,191.287 Z M 989.818,191.287 C 990.163,192.039 989.833,192.93 989.08,193.276 C 987.058,194.204 986.469,195.369 986.469,196.181 C 986.469,197.005 987.075,198.165 989.08,199.085 C 991.707,200.291 993.44,202.328 993.439,204.718 C 993.438,207.095 991.72,209.136 989.08,210.348 C 988.328,210.693 987.437,210.363 987.091,209.61 C 986.746,208.858 987.076,207.967 987.829,207.621 C 989.849,206.694 990.439,205.529 990.439,204.717 C 990.44,203.892 989.835,202.733 987.829,201.812 C 985.204,200.607 983.469,198.571 983.469,196.181 C 983.469,193.804 985.187,191.762 987.829,190.549 C 988.581,190.204 989.472,190.534 989.818,191.287 Z" fill="#ffffff" stroke-width="1.7" stroke-linejoin="miter" marker-start="none" marker-end="none"/>
    <rect x="968.598" y="223.353" width="23.475" height="4.874" rx="1.37880002054572" ry="1.37880002054572" fill="#ffffff" stroke-width="1.7" stroke-linejoin="miter"/>
   </g>
  </g>
 </g>
</svg>
