<?xml version="1.0" standalone="no"?>
<!DOCTYPE svg PUBLIC "-//W3C//DTD SVG 1.1//EN" "http://www.w3.org/Graphics/SVG/1.1/DTD/svg11.dtd">
<!--Generator: Xara Designer (www.xara.com), SVG filter version: 6.7.0.0-->
<svg fill="none" fill-rule="evenodd" stroke="black" stroke-width="0.501" stroke-linejoin="bevel" stroke-miterlimit="10" font-family="Times New Roman" font-size="16" style="font-variant-ligatures:none" xmlns:xlink="http://www.w3.org/1999/xlink" xmlns="http://www.w3.org/2000/svg" version="1.1" overflow="visible" width="60.749pt" height="74.999pt" viewBox="765.15 -237.375 60.749 74.999">
 <defs>
  <linearGradient id="LinearGradient" gradientUnits="userSpaceOnUse" x1="0" y1="0" x2="78.479" y2="0" gradientTransform="translate(823.157 164.766) rotate(128.387) skewX(-13.227)">
   <stop offset="0" stop-color="#5dc5ff"/>
   <stop offset="1" stop-color="#375ee6"/>
  </linearGradient>
 </defs>
 <g id="Background" transform="scale(1 -1)">
  <path d="M 765.15,232.072 L 765.15,167.679 C 765.15,164.752 767.526,162.376 770.453,162.376 L 820.596,162.376 C 823.523,162.376 825.899,164.752 825.899,167.679 L 825.899,232.072 C 825.899,234.999 823.523,237.375 820.596,237.375 L 770.453,237.375 C 767.526,237.375 765.15,234.999 765.15,232.072 Z" stroke="none" stroke-width="0.376" fill-rule="evenodd" marker-start="none" marker-end="none" fill="url(#LinearGradient)"/>
 </g>
 <g id="Foreground" transform="scale(1 -1)">
  <path d="M 785.567,180.18 C 776.725,185.785 774.098,197.512 779.703,206.354 C 785.308,215.196 797.035,217.823 805.877,212.218 C 814.719,206.613 817.346,194.886 811.741,186.044 C 806.136,177.202 794.409,174.575 785.567,180.18 Z M 788.931,185.747 C 789.315,186.48 789.033,187.387 788.299,187.772 C 786.334,188.803 785.617,190.179 785.617,191.322 C 785.617,192.456 786.344,193.845 788.299,194.87 C 790.983,196.278 792.588,198.562 792.587,201.077 C 792.587,203.601 790.989,205.87 788.3,207.282 C 787.566,207.666 786.659,207.384 786.274,206.651 C 785.89,205.917 786.172,205.01 786.905,204.625 C 788.869,203.595 789.587,202.22 789.587,201.076 C 789.588,199.942 788.862,198.553 786.906,197.527 C 784.224,196.12 782.617,193.837 782.617,191.322 C 782.617,188.797 784.214,186.528 786.906,185.115 C 787.639,184.731 788.546,185.013 788.931,185.747 Z M 797.05,185.747 C 797.434,186.48 797.152,187.387 796.418,187.772 C 794.453,188.803 793.736,190.179 793.736,191.322 C 793.736,192.456 794.463,193.845 796.418,194.87 C 799.102,196.278 800.707,198.562 800.706,201.077 C 800.706,203.601 799.108,205.87 796.419,207.282 C 795.685,207.666 794.778,207.384 794.393,206.651 C 794.009,205.917 794.291,205.01 795.024,204.625 C 796.988,203.595 797.706,202.22 797.706,201.076 C 797.707,199.942 796.981,198.553 795.025,197.527 C 792.343,196.12 790.736,193.837 790.736,191.322 C 790.736,188.797 792.333,186.528 795.025,185.115 C 795.758,184.731 796.665,185.013 797.05,185.747 Z M 805.169,185.747 C 805.553,186.48 805.271,187.387 804.537,187.772 C 802.572,188.803 801.855,190.179 801.855,191.322 C 801.855,192.456 802.582,193.845 804.537,194.87 C 807.221,196.278 808.826,198.562 808.825,201.077 C 808.825,203.601 807.227,205.87 804.538,207.282 C 803.804,207.666 802.897,207.384 802.512,206.651 C 802.128,205.917 802.41,205.01 803.143,204.625 C 805.107,203.595 805.825,202.22 805.825,201.076 C 805.826,199.942 805.1,198.553 803.144,197.527 C 800.462,196.12 798.855,193.837 798.855,191.322 C 798.855,188.797 800.452,186.528 803.144,185.115 C 803.877,184.731 804.784,185.013 805.169,185.747 Z M 783.78,224.731 L 783.78,226.85 C 783.78,227.61 784.398,228.228 785.158,228.228 L 805.877,228.228 C 806.637,228.228 807.255,227.61 807.255,226.85 L 807.255,224.731 C 807.255,223.971 806.637,223.353 805.877,223.353 L 785.158,223.353 C 784.398,223.353 783.78,223.971 783.78,224.731 Z" stroke="none" fill="#ffffff" stroke-linejoin="miter" stroke-width="1.7" marker-start="none" marker-end="none"/>
 </g>
</svg>
