<?xml version="1.0" standalone="no"?>
<!DOCTYPE svg PUBLIC "-//W3C//DTD SVG 1.1//EN" "http://www.w3.org/Graphics/SVG/1.1/DTD/svg11.dtd">
<!--Generator: Xara Designer (www.xara.com), SVG filter version: 6.7.0.0-->
<svg fill="none" fill-rule="evenodd" stroke="black" stroke-width="0.501" stroke-linejoin="bevel" stroke-miterlimit="10" font-family="Times New Roman" font-size="16" style="font-variant-ligatures:none" xmlns:xlink="http://www.w3.org/1999/xlink" xmlns="http://www.w3.org/2000/svg" version="1.1" overflow="visible" width="75.001pt" height="48.423pt" viewBox="1511.19 -224.033 75.001 48.423">
 <defs>
  <linearGradient id="LinearGradient" gradientUnits="userSpaceOnUse" x1="0" y1="0" x2="72.092" y2="0" gradientTransform="translate(1582.81 177.153) rotate(146.57) skewX(23.1398)">
   <stop offset="0" stop-color="#5dc5ff"/>
   <stop offset="1" stop-color="#375ee6"/>
  </linearGradient>
  <linearGradient id="LinearGradient_1" gradientUnits="userSpaceOnUse" x1="0" y1="0" x2="72.092" y2="0" gradientTransform="translate(1582.81 177.153) rotate(146.57) skewX(23.1398)">
   <stop offset="0" stop-color="#5dc5ff"/>
   <stop offset="1" stop-color="#375ee6"/>
  </linearGradient>
  <style type="text/css">@import url('https://themes.googleusercontent.com/fonts/css?family=Open Sans:400,600');</style>
 </defs>
 <g id="inactive" transform="scale(1 -1)">
  <path d="M 1511.19,180.913 L 1511.19,218.73 C 1511.19,221.657 1513.57,224.033 1516.5,224.033 L 1580.89,224.033 C 1583.82,224.033 1586.19,221.657 1586.19,218.73 L 1586.19,180.913 C 1586.19,177.986 1583.82,175.61 1580.89,175.61 L 1516.5,175.61 C 1513.57,175.61 1511.19,177.986 1511.19,180.913 Z M 1583.19,180.913 L 1583.19,218.73 C 1583.19,220 1582.16,221.033 1580.89,221.033 L 1516.5,221.033 C 1515.22,221.033 1514.19,220 1514.19,218.73 L 1514.19,180.913 C 1514.19,179.642 1515.22,178.61 1516.5,178.61 L 1580.89,178.61 C 1582.16,178.61 1583.19,179.642 1583.19,180.913 Z M 1520,187.296 L 1520,212.453 C 1520,214.023 1521.38,215.297 1523.08,215.297 L 1565.33,215.297 C 1567.03,215.297 1568.4,214.023 1568.4,212.453 L 1568.4,187.296 C 1568.4,185.725 1567.03,184.452 1565.33,184.452 L 1523.08,184.452 C 1521.38,184.452 1520,185.725 1520,187.296 Z M 1557.29,190.427 C 1557.91,190.974 1557.98,191.922 1557.43,192.544 C 1556.88,193.166 1555.93,193.227 1555.31,192.68 C 1553.83,191.377 1552.69,190.394 1550.25,190.394 C 1547.82,190.394 1546.68,191.371 1545.19,192.68 C 1543.65,194.037 1541.77,195.714 1538.15,195.714 C 1534.54,195.714 1532.66,194.041 1531.11,192.68 C 1530.49,192.133 1530.43,191.185 1530.98,190.563 C 1531.52,189.941 1532.47,189.88 1533.09,190.427 C 1534.58,191.73 1535.72,192.714 1538.15,192.714 C 1540.58,192.714 1541.72,191.737 1543.21,190.427 C 1544.76,189.071 1546.64,187.394 1550.25,187.394 C 1553.87,187.394 1555.74,189.066 1557.29,190.427 Z M 1572.94,190.216 L 1572.94,209.53 C 1572.94,210.24 1573.56,210.816 1574.32,210.816 L 1576.44,210.816 C 1577.2,210.816 1577.82,210.24 1577.82,209.531 L 1577.82,190.216 C 1577.82,189.507 1577.2,188.931 1576.44,188.931 L 1574.32,188.931 C 1573.56,188.931 1572.94,189.506 1572.94,190.216 Z M 1557.29,198.747 C 1557.91,199.294 1557.98,200.242 1557.43,200.864 C 1556.88,201.486 1555.93,201.547 1555.31,201 C 1553.83,199.697 1552.69,198.714 1550.25,198.714 C 1547.82,198.714 1546.68,199.691 1545.19,201 C 1543.65,202.357 1541.77,204.034 1538.15,204.034 C 1534.54,204.034 1532.66,202.361 1531.11,201 C 1530.49,200.453 1530.43,199.505 1530.98,198.883 C 1531.52,198.261 1532.47,198.2 1533.09,198.747 C 1534.58,200.05 1535.72,201.034 1538.15,201.034 C 1540.58,201.034 1541.72,200.057 1543.21,198.747 C 1544.76,197.391 1546.64,195.714 1550.25,195.714 C 1553.87,195.714 1555.74,197.386 1557.29,198.747 Z M 1557.29,207.067 C 1557.91,207.614 1557.98,208.562 1557.43,209.184 C 1556.88,209.806 1555.93,209.867 1555.31,209.32 C 1553.83,208.017 1552.69,207.034 1550.25,207.034 C 1547.82,207.034 1546.68,208.011 1545.19,209.32 C 1543.65,210.677 1541.77,212.354 1538.15,212.354 C 1534.54,212.354 1532.66,210.681 1531.11,209.32 C 1530.49,208.773 1530.43,207.825 1530.98,207.203 C 1531.52,206.581 1532.47,206.52 1533.09,207.067 C 1534.58,208.37 1535.72,209.354 1538.15,209.354 C 1540.58,209.354 1541.72,208.377 1543.21,207.067 C 1544.76,205.711 1546.64,204.034 1550.25,204.034 C 1553.87,204.034 1555.74,205.706 1557.29,207.067 Z" fill-rule="evenodd" stroke-width="0.376" stroke="none" marker-start="none" marker-end="none" fill="url(#LinearGradient)"/>
 </g>
 <g id="active-bg" transform="scale(1 -1)">
  <path d="M 1511.19,180.913 L 1511.19,218.73 C 1511.19,221.657 1513.57,224.033 1516.5,224.033 L 1580.89,224.033 C 1583.82,224.033 1586.19,221.657 1586.19,218.73 L 1586.19,180.913 C 1586.19,177.986 1583.82,175.61 1580.89,175.61 L 1516.5,175.61 C 1513.57,175.61 1511.19,177.986 1511.19,180.913 Z" stroke="none" stroke-width="0.376" fill-rule="evenodd" marker-start="none" marker-end="none" fill="url(#LinearGradient_1)"/>
 </g>
 <g id="active-fg" transform="scale(1 -1)">
  <path d="M 1520,187.296 L 1520,212.453 C 1520,214.023 1521.38,215.297 1523.08,215.297 L 1565.33,215.297 C 1567.03,215.297 1568.4,214.023 1568.4,212.453 L 1568.4,187.296 C 1568.4,185.725 1567.03,184.452 1565.33,184.452 L 1523.08,184.452 C 1521.38,184.452 1520,185.725 1520,187.296 Z M 1557.29,190.427 C 1557.91,190.974 1557.98,191.922 1557.43,192.544 C 1556.88,193.166 1555.93,193.227 1555.31,192.68 C 1553.83,191.377 1552.69,190.394 1550.25,190.394 C 1547.82,190.394 1546.68,191.371 1545.19,192.68 C 1543.65,194.037 1541.77,195.714 1538.15,195.714 C 1534.54,195.714 1532.66,194.041 1531.11,192.68 C 1530.49,192.133 1530.43,191.185 1530.98,190.563 C 1531.52,189.941 1532.47,189.88 1533.09,190.427 C 1534.58,191.73 1535.72,192.714 1538.15,192.714 C 1540.58,192.714 1541.72,191.737 1543.21,190.427 C 1544.76,189.071 1546.64,187.394 1550.25,187.394 C 1553.87,187.394 1555.74,189.066 1557.29,190.427 Z M 1572.94,190.216 L 1572.94,209.53 C 1572.94,210.24 1573.56,210.816 1574.32,210.816 L 1576.44,210.816 C 1577.2,210.816 1577.82,210.24 1577.82,209.531 L 1577.82,190.216 C 1577.82,189.507 1577.2,188.931 1576.44,188.931 L 1574.32,188.931 C 1573.56,188.931 1572.94,189.506 1572.94,190.216 Z M 1557.29,198.747 C 1557.91,199.294 1557.98,200.242 1557.43,200.864 C 1556.88,201.486 1555.93,201.547 1555.31,201 C 1553.83,199.697 1552.69,198.714 1550.25,198.714 C 1547.82,198.714 1546.68,199.691 1545.19,201 C 1543.65,202.357 1541.77,204.034 1538.15,204.034 C 1534.54,204.034 1532.66,202.361 1531.11,201 C 1530.49,200.453 1530.43,199.505 1530.98,198.883 C 1531.52,198.261 1532.47,198.2 1533.09,198.747 C 1534.58,200.05 1535.72,201.034 1538.15,201.034 C 1540.58,201.034 1541.72,200.057 1543.21,198.747 C 1544.76,197.391 1546.64,195.714 1550.25,195.714 C 1553.87,195.714 1555.74,197.386 1557.29,198.747 Z M 1557.29,207.067 C 1557.91,207.614 1557.98,208.562 1557.43,209.184 C 1556.88,209.806 1555.93,209.867 1555.31,209.32 C 1553.83,208.017 1552.69,207.034 1550.25,207.034 C 1547.82,207.034 1546.68,208.011 1545.19,209.32 C 1543.65,210.677 1541.77,212.354 1538.15,212.354 C 1534.54,212.354 1532.66,210.681 1531.11,209.32 C 1530.49,208.773 1530.43,207.825 1530.98,207.203 C 1531.52,206.581 1532.47,206.52 1533.09,207.067 C 1534.58,208.37 1535.72,209.354 1538.15,209.354 C 1540.58,209.354 1541.72,208.377 1543.21,207.067 C 1544.76,205.711 1546.64,204.034 1550.25,204.034 C 1553.87,204.034 1555.74,205.706 1557.29,207.067 Z" fill-rule="evenodd" stroke-width="0.5" fill="#ffffff" stroke="none" marker-start="none" marker-end="none"/>
 </g>
</svg>
