<?xml version="1.0" standalone="no"?>
<!DOCTYPE svg PUBLIC "-//W3C//DTD SVG 1.1//EN" "http://www.w3.org/Graphics/SVG/1.1/DTD/svg11.dtd">
<!--Generator: Xara Designer (www.xara.com), SVG filter version: 6.7.0.0-->
<svg fill="none" fill-rule="evenodd" stroke="black" stroke-width="0.501" stroke-linejoin="bevel" stroke-miterlimit="10" font-family="Times New Roman" font-size="16" style="font-variant-ligatures:none" xmlns:xlink="http://www.w3.org/1999/xlink" xmlns="http://www.w3.org/2000/svg" version="1.1" overflow="visible" width="75.006pt" height="62.249pt" viewBox="18.75 -230.999 75.006 62.249">
 <defs>
  <linearGradient id="LinearGradient" gradientUnits="userSpaceOnUse" x1="0" y1="0" x2="78.908" y2="0" gradientTransform="translate(90.367 170.734) rotate(139.681) skewX(9.36099)">
   <stop offset="0" stop-color="#5dc5ff"/>
   <stop offset="1" stop-color="#375ee6"/>
  </linearGradient>
 </defs>
 <g id="Background" transform="scale(1 -1)">
  <path d="M 18.753,226.598 L 18.753,173.151 C 18.753,170.722 20.725,168.75 23.154,168.75 L 89.351,168.75 C 91.78,168.75 93.752,170.722 93.752,173.151 L 93.752,226.598 C 93.752,229.027 91.78,230.999 89.351,230.999 L 23.154,230.999 C 20.725,230.999 18.753,229.027 18.753,226.598 Z" stroke="none" stroke-width="0.376" fill-rule="evenodd" marker-start="none" marker-end="none" fill="url(#LinearGradient)"/>
 </g>
 <g id="Foreground" transform="scale(1 -1)">
  <path d="M 34.853,179.307 L 34.853,212.102 L 18.75,212.102 L 18.75,215.102 L 93.756,215.102 L 93.756,212.102 L 77.652,212.102 L 77.652,179.307 C 77.652,177.904 76.514,176.767 75.112,176.767 L 37.393,176.767 C 35.99,176.767 34.853,177.904 34.853,179.307 Z M 74.652,179.767 L 74.652,212.102 L 64.224,212.102 L 64.224,204.733 C 64.224,203.33 63.086,202.193 61.684,202.193 L 50.821,202.193 C 49.418,202.193 48.281,203.33 48.281,204.733 L 48.281,212.102 L 37.853,212.102 L 37.853,179.767 L 74.652,179.767 Z M 48.031,196.285 C 48.031,196.557 48.257,196.767 48.529,196.767 L 63.977,196.767 C 64.249,196.767 64.475,196.557 64.475,196.285 C 64.475,195.54 64.424,194.747 64.334,193.93 C 65.113,193.955 65.896,193.862 66.665,193.612 C 67.357,193.387 68.165,193.055 68.804,192.408 C 69.478,191.724 69.855,190.803 69.901,189.615 C 69.947,188.4 69.325,187.408 68.559,186.672 C 67.793,185.936 66.783,185.353 65.769,184.914 C 64.747,184.471 63.659,184.147 62.686,183.956 C 62.466,183.912 62.245,183.875 62.027,183.844 C 61.848,183.273 61.68,182.759 61.533,182.319 L 50.973,182.319 C 49.971,185.314 48.029,191.699 48.031,196.285 Z M 64.875,186.978 C 66.758,187.795 67.681,188.778 67.652,189.53 C 67.625,190.256 67.417,190.61 67.202,190.828 C 66.951,191.082 66.566,191.278 65.968,191.473 C 65.357,191.671 64.699,191.724 64.001,191.654 C 63.673,189.806 63.211,187.934 62.747,186.271 C 63.438,186.437 64.178,186.676 64.875,186.978 Z M 61.224,205.193 L 61.224,212.102 L 51.281,212.102 L 51.281,205.193 L 61.224,205.193 Z M 44.516,221.99 L 44.516,224.109 C 44.516,224.869 45.134,225.487 45.894,225.487 L 66.613,225.487 C 67.373,225.487 67.991,224.869 67.991,224.109 L 67.991,221.99 C 67.991,221.23 67.373,220.612 66.613,220.612 L 45.894,220.612 C 45.134,220.612 44.516,221.23 44.516,221.99 Z" stroke="none" fill="#ffffff" stroke-linejoin="miter" stroke-width="0.498" fill-rule="nonzero" marker-start="none" marker-end="none"/>
 </g>
</svg>
