<?xml version="1.0" standalone="no"?>
<!DOCTYPE svg PUBLIC "-//W3C//DTD SVG 1.1//EN" "http://www.w3.org/Graphics/SVG/1.1/DTD/svg11.dtd">
<!--Generator: Xara Designer (www.xara.com), SVG filter version: 6.7.0.0-->
<svg fill="none" fill-rule="evenodd" stroke="black" stroke-width="0.501" stroke-linejoin="bevel" stroke-miterlimit="10" font-family="Times New Roman" font-size="16" style="font-variant-ligatures:none" xmlns:xlink="http://www.w3.org/1999/xlink" xmlns="http://www.w3.org/2000/svg" version="1.1" overflow="visible" width="74.999pt" height="74.999pt" viewBox="295.982 -139.1 74.999 74.999">
 <defs>
  <linearGradient id="LinearGradient" gradientUnits="userSpaceOnUse" x1="0" y1="0" x2="0" y2="-74.931" gradientTransform="translate(335.088 139.066)">
   <stop offset="0" stop-color="#7f28bf"/>
   <stop offset="1" stop-color="#630785"/>
  </linearGradient>
  <linearGradient id="LinearGradient_1" gradientUnits="userSpaceOnUse" x1="0" y1="0" x2="0" y2="-74.931" gradientTransform="translate(335.088 139.066)">
   <stop offset="0" stop-color="#512472"/>
   <stop offset="1" stop-color="#441d53"/>
  </linearGradient>
 </defs>
 <g id="inactive" transform="scale(1 -1)">
  <path d="M 309.612,72.674 C 293.644,85.85 291.378,109.503 304.554,125.47 C 317.731,141.438 341.384,143.704 357.351,130.528 C 371.835,118.576 375.045,98.005 365.684,82.368 L 368.882,68.066 C 369.141,66.906 368.098,65.869 366.939,66.136 L 352.736,69.408 C 339.503,61.499 322.177,62.304 309.612,72.674 Z M 351.196,71.983 L 352.233,72.602 L 365.475,69.551 L 362.495,82.881 L 363.109,83.908 C 371.72,98.293 368.764,117.22 355.441,128.214 C 340.752,140.335 318.99,138.25 306.867,123.56 C 294.746,108.871 296.831,87.109 311.521,74.987 C 323.076,65.451 339.017,64.703 351.196,71.983 Z M 324.358,85.659 L 324.358,105.492 C 321.531,106.86 319.64,109.73 319.64,113.049 C 319.64,115.817 321.211,118.267 323.163,119.799 C 323.388,119.973 323.69,120.006 323.943,119.882 C 324.199,119.758 324.358,119.5 324.358,119.216 L 324.358,115.114 C 324.358,113.805 325.423,112.788 326.734,112.788 L 329.372,112.788 C 330.683,112.788 331.744,113.806 331.744,115.114 L 331.744,119.213 C 331.744,119.497 331.906,119.755 332.161,119.879 C 332.415,120.002 332.716,119.97 332.94,119.795 C 334.888,118.265 336.461,115.815 336.461,113.048 C 336.461,109.729 334.514,106.859 331.744,105.492 L 331.744,85.659 C 331.744,84.317 330.669,83.245 329.328,83.245 L 326.774,83.245 C 325.433,83.245 324.358,84.317 324.358,85.659 Z M 337.571,86.301 L 337.571,96.68 C 337.571,98.387 338.944,99.806 340.651,99.806 L 340.687,99.806 L 340.687,110.367 L 340.422,110.367 C 339.475,110.367 338.725,111.112 338.725,112.059 L 338.725,118.204 C 338.725,119.152 339.474,119.888 340.422,119.888 L 344.453,119.888 C 345.401,119.888 346.17,119.152 346.17,118.204 L 346.17,112.059 C 346.17,111.112 345.401,110.366 344.453,110.366 L 344.206,110.366 L 344.206,99.805 L 344.226,99.805 C 345.932,99.805 347.322,98.385 347.322,96.68 L 347.322,86.301 C 347.322,84.595 345.932,83.246 344.227,83.246 L 340.651,83.246 C 338.944,83.246 337.571,84.595 337.571,86.301 Z" stroke="none" stroke-width="0.405" stroke-linejoin="miter" marker-start="none" marker-end="none" fill="url(#LinearGradient)"/>
 </g>
 <g id="active-bg" transform="scale(1 -1)">
  <path d="M 309.612,72.674 C 293.644,85.85 291.378,109.503 304.554,125.47 C 317.731,141.438 341.384,143.704 357.351,130.528 C 371.835,118.576 375.045,98.005 365.684,82.368 L 368.882,68.066 C 369.141,66.906 368.098,65.869 366.939,66.136 L 352.736,69.408 C 339.503,61.499 322.177,62.304 309.612,72.674 Z" stroke="none" stroke-width="0.405" stroke-linejoin="miter" marker-start="none" marker-end="none" fill="url(#LinearGradient_1)"/>
 </g>
 <g id="active-fg" transform="scale(1 -1)">
  <path d="M 324.358,85.659 L 324.358,105.492 C 321.531,106.86 319.64,109.73 319.64,113.049 C 319.64,115.817 321.211,118.267 323.163,119.799 C 323.388,119.973 323.69,120.006 323.943,119.882 C 324.199,119.758 324.358,119.5 324.358,119.216 L 324.358,115.114 C 324.358,113.805 325.423,112.788 326.734,112.788 L 329.372,112.788 C 330.683,112.788 331.744,113.806 331.744,115.114 L 331.744,119.213 C 331.744,119.497 331.906,119.755 332.161,119.879 C 332.415,120.002 332.716,119.97 332.94,119.795 C 334.888,118.265 336.461,115.815 336.461,113.048 C 336.461,109.729 334.514,106.859 331.744,105.492 L 331.744,85.659 C 331.744,84.317 330.669,83.245 329.328,83.245 L 326.774,83.245 C 325.433,83.245 324.358,84.317 324.358,85.659 Z M 337.571,86.301 L 337.571,96.68 C 337.571,98.387 338.944,99.806 340.651,99.806 L 340.687,99.806 L 340.687,110.367 L 340.422,110.367 C 339.475,110.367 338.725,111.112 338.725,112.059 L 338.725,118.204 C 338.725,119.152 339.474,119.888 340.422,119.888 L 344.453,119.888 C 345.401,119.888 346.17,119.152 346.17,118.204 L 346.17,112.059 C 346.17,111.112 345.401,110.366 344.453,110.366 L 344.206,110.366 L 344.206,99.805 L 344.226,99.805 C 345.932,99.805 347.322,98.385 347.322,96.68 L 347.322,86.301 C 347.322,84.595 345.932,83.246 344.227,83.246 L 340.651,83.246 C 338.944,83.246 337.571,84.595 337.571,86.301 Z" stroke="none" fill="#ffffff" stroke-width="0.096" marker-start="none" marker-end="none"/>
 </g>
</svg>
