<?xml version="1.0" standalone="no"?>
<!DOCTYPE svg PUBLIC "-//W3C//DTD SVG 1.1//EN" "http://www.w3.org/Graphics/SVG/1.1/DTD/svg11.dtd">
<!--Generator: Xara Designer (www.xara.com), SVG filter version: 6.7.0.0-->
<svg fill="none" fill-rule="evenodd" stroke="black" stroke-width="0.501" stroke-linejoin="bevel" stroke-miterlimit="10" font-family="Times New Roman" font-size="16" style="font-variant-ligatures:none" xmlns:xlink="http://www.w3.org/1999/xlink" xmlns="http://www.w3.org/2000/svg" version="1.1" overflow="visible" width="47.251pt" height="74.999pt" viewBox="1233.94 -237.374 47.251 74.999">
 <defs>
  <linearGradient id="LinearGradient" gradientUnits="userSpaceOnUse" x1="0" y1="0" x2="72.255" y2="0" gradientTransform="translate(1279.06 164.765) rotate(121.641) skewX(-26.7184)">
   <stop offset="0" stop-color="#5dc5ff"/>
   <stop offset="1" stop-color="#375ee6"/>
  </linearGradient>
 </defs>
 <g id="Background" transform="scale(1 -1)">
  <path d="M 1233.94,232.071 L 1233.94,167.678 C 1233.94,164.751 1236.32,162.375 1239.25,162.375 L 1275.89,162.375 C 1278.82,162.375 1281.19,164.751 1281.19,167.678 L 1281.19,232.071 C 1281.19,234.998 1278.82,237.374 1275.89,237.374 L 1239.25,237.374 C 1236.32,237.374 1233.94,234.998 1233.94,232.071 Z" fill-rule="evenodd" stroke="none" stroke-width="0.376" marker-start="none" marker-end="none" fill="url(#LinearGradient)"/>
 </g>
 <g id="Foreground" transform="scale(1 -1)">
  <path d="M 1242.18,212.917 L 1242.18,219.839 C 1242.18,220.666 1242.85,221.339 1243.68,221.339 C 1244.51,221.339 1245.18,220.666 1245.18,219.839 L 1245.18,212.917 C 1245.18,212.089 1244.51,211.417 1243.68,211.417 C 1242.85,211.417 1242.18,212.089 1242.18,212.917 Z" fill-rule="evenodd" stroke="none" stroke-width="0.5" fill="#ffffff" marker-start="none" marker-end="none"/>
 </g>
</svg>
