<?xml version="1.0" standalone="no"?>
<!DOCTYPE svg PUBLIC "-//W3C//DTD SVG 1.1//EN" "http://www.w3.org/Graphics/SVG/1.1/DTD/svg11.dtd">
<!--Generator: Xara Designer (www.xara.com), SVG filter version: 6.7.0.0-->
<svg fill="none" fill-rule="evenodd" stroke="black" stroke-width="0.501" stroke-linejoin="bevel" stroke-miterlimit="10" font-family="Times New Roman" font-size="16" style="font-variant-ligatures:none" xmlns:xlink="http://www.w3.org/1999/xlink" xmlns="http://www.w3.org/2000/svg" version="1.1" overflow="visible" width="47.251pt" height="74.999pt" viewBox="1049.13 -237.375 47.251 74.999">
 <defs>
  <linearGradient id="LinearGradient" gradientUnits="userSpaceOnUse" x1="0" y1="0" x2="72.255" y2="0" gradientTransform="translate(1094.24 164.766) rotate(121.641) skewX(-26.7184)">
   <stop offset="0" stop-color="#5dc5ff"/>
   <stop offset="1" stop-color="#375ee6"/>
  </linearGradient>
 </defs>
 <g id="Background" transform="scale(1 -1)">
  <path d="M 1049.13,232.072 L 1049.13,167.679 C 1049.13,164.752 1051.5,162.376 1054.43,162.376 L 1091.07,162.376 C 1094,162.376 1096.38,164.752 1096.38,167.679 L 1096.38,232.072 C 1096.38,234.999 1094,237.375 1091.07,237.375 L 1054.43,237.375 C 1051.5,237.375 1049.13,234.999 1049.13,232.072 Z" fill-rule="evenodd" stroke="none" stroke-width="0.376" marker-start="none" marker-end="none" fill="url(#LinearGradient)"/>
 </g>
 <g id="Foreground" transform="scale(1 -1)">
  <path d="M 1071.2,170.483 L 1071.2,173.659 L 1069.04,171.49 C 1068.45,170.904 1067.5,170.904 1066.91,171.49 C 1066.33,172.075 1066.33,173.026 1066.91,173.611 L 1071.2,177.901 L 1071.2,182.823 L 1067.07,180.435 L 1065.46,174.448 C 1065.25,173.649 1064.43,173.173 1063.63,173.388 C 1062.83,173.602 1062.35,174.425 1062.57,175.225 L 1063.39,178.315 L 1060.56,176.68 C 1059.85,176.266 1058.93,176.512 1058.51,177.23 C 1058.1,177.947 1058.35,178.865 1059.06,179.279 L 1061.81,180.866 L 1058.85,181.661 C 1058.05,181.875 1057.58,182.698 1057.79,183.498 C 1058,184.298 1058.83,184.773 1059.63,184.558 L 1065.49,182.986 L 1069.65,185.393 L 1065.49,187.8 L 1059.63,186.23 C 1058.83,186.015 1058.01,186.49 1057.79,187.29 C 1057.58,188.09 1058.05,188.913 1058.85,189.127 L 1061.81,189.921 L 1059.06,191.51 C 1058.35,191.924 1058.1,192.843 1058.51,193.56 C 1058.93,194.277 1059.85,194.523 1060.56,194.109 L 1063.4,192.472 L 1062.57,195.565 C 1062.35,196.365 1062.83,197.188 1063.63,197.402 C 1064.43,197.617 1065.25,197.141 1065.46,196.342 L 1067.07,190.351 L 1071.2,187.962 L 1071.2,192.887 L 1066.91,197.177 C 1066.33,197.762 1066.33,198.713 1066.91,199.298 C 1067.5,199.884 1068.45,199.884 1069.04,199.298 L 1071.2,197.129 L 1071.2,200.308 C 1071.2,201.135 1071.88,201.808 1072.7,201.808 C 1073.53,201.808 1074.2,201.135 1074.2,200.308 L 1074.2,197.035 L 1076.47,199.298 C 1077.05,199.884 1078,199.884 1078.59,199.298 C 1079.17,198.713 1079.17,197.762 1078.59,197.177 L 1074.2,192.793 L 1074.2,188.019 L 1078.47,190.48 L 1080.04,196.34 C 1080.25,197.139 1081.07,197.615 1081.87,197.4 C 1082.67,197.186 1083.15,196.363 1082.93,195.563 L 1082.14,192.601 L 1084.89,194.191 C 1085.61,194.605 1086.53,194.359 1086.94,193.641 C 1087.36,192.924 1087.11,192.006 1086.39,191.592 L 1083.56,189.956 L 1086.65,189.127 C 1087.45,188.913 1087.93,188.09 1087.71,187.29 C 1087.5,186.49 1086.67,186.015 1085.88,186.23 L 1079.88,187.835 L 1075.65,185.393 L 1079.88,182.952 L 1085.87,184.558 C 1086.67,184.773 1087.5,184.298 1087.71,183.498 C 1087.92,182.698 1087.45,181.875 1086.65,181.661 L 1083.56,180.831 L 1086.39,179.196 C 1087.11,178.782 1087.36,177.863 1086.94,177.146 C 1086.53,176.429 1085.61,176.183 1084.89,176.597 L 1082.14,178.184 L 1082.93,175.224 C 1083.15,174.424 1082.67,173.601 1081.87,173.387 C 1081.07,173.172 1080.25,173.648 1080.04,174.447 L 1078.47,180.305 L 1074.2,182.765 L 1074.2,177.995 L 1078.59,173.611 C 1079.17,173.026 1079.17,172.075 1078.59,171.49 C 1078,170.904 1077.05,170.904 1076.47,171.49 L 1074.2,173.753 L 1074.2,170.483 C 1074.2,169.655 1073.53,168.983 1072.7,168.983 C 1071.88,168.983 1071.2,169.655 1071.2,170.483 Z M 1057.36,212.918 L 1057.36,219.84 C 1057.36,220.667 1058.03,221.34 1058.86,221.34 C 1059.69,221.34 1060.36,220.667 1060.36,219.84 L 1060.36,212.918 C 1060.36,212.09 1059.69,211.418 1058.86,211.418 C 1058.03,211.418 1057.36,212.09 1057.36,212.918 Z" fill-rule="evenodd" stroke="none" fill="#ffffff" stroke-width="0.5" marker-start="none" marker-end="none"/>
 </g>
</svg>
