<?xml version="1.0" standalone="no"?>
<!DOCTYPE svg PUBLIC "-//W3C//DTD SVG 1.1//EN" "http://www.w3.org/Graphics/SVG/1.1/DTD/svg11.dtd">
<!--Generator: Xara Designer (www.xara.com), SVG filter version: 6.7.0.0-->
<svg fill="none" fill-rule="evenodd" stroke="black" stroke-width="0.501" stroke-linejoin="bevel" stroke-miterlimit="10" font-family="Times New Roman" font-size="16" style="font-variant-ligatures:none" xmlns:xlink="http://www.w3.org/1999/xlink" xmlns="http://www.w3.org/2000/svg" version="1.1" overflow="visible" width="75.003pt" height="55.7pt" viewBox="111.158 -227.724 75.003 55.7">
 <defs>
  <linearGradient id="LinearGradient" gradientUnits="userSpaceOnUse" x1="0" y1="0" x2="75.547" y2="0" gradientTransform="translate(182.776 173.799) rotate(142.79) skewX(15.5807)">
   <stop offset="0" stop-color="#5dc5ff"/>
   <stop offset="1" stop-color="#375ee6"/>
  </linearGradient>
 </defs>
 <g id="Background" transform="scale(1 -1)">
  <path d="M 111.16,177.327 L 111.158,194.585 L 113.333,194.344 L 113.334,227.724 L 170.314,227.724 L 166.003,188.518 L 186.159,186.289 L 186.161,177.327 C 186.161,174.4 183.785,172.024 180.858,172.024 L 116.463,172.024 C 113.536,172.024 111.16,174.4 111.16,177.327 Z" fill-rule="evenodd" stroke="none" stroke-width="0.376" marker-start="none" marker-end="none" fill="url(#LinearGradient)"/>
 </g>
 <g id="Foreground" transform="scale(1 -1)">
  <path d="M 186.16,180.252 L 111.159,188.548 L 111.159,191.566 L 128.609,189.635 L 128.569,189.64 C 127.453,191.208 126.903,193.087 126.903,194.936 L 126.903,227.724 L 129.903,227.724 L 129.903,194.936 C 129.903,192.244 131.554,189.473 135.323,188.916 L 135.319,188.893 L 186.16,183.27 L 186.16,180.252 Z M 150.586,190.224 L 134.216,192.034 C 133.398,192.967 132.903,194.189 132.903,195.527 L 132.903,224.724 L 166.906,224.724 L 163.681,195.527 C 163.681,192.6 161.305,190.224 158.378,190.224 L 150.586,190.224 Z" fill-rule="evenodd" stroke="none" fill="#ffffff" stroke-width="0.5" marker-start="none" marker-end="none"/>
 </g>
</svg>
