<?xml version="1.0" standalone="no"?>
<!DOCTYPE svg PUBLIC "-//W3C//DTD SVG 1.1//EN" "http://www.w3.org/Graphics/SVG/1.1/DTD/svg11.dtd">
<!--Generator: Xara Designer (www.xara.com), SVG filter version: 6.6.0.13-->
<svg fill="none" fill-rule="evenodd" stroke="black" stroke-linejoin="bevel" stroke-miterlimit="10" font-family="Times New Roman" font-size="16" style="font-variant-ligatures:none" xmlns:xlink="http://www.w3.org/1999/xlink" xmlns="http://www.w3.org/2000/svg" version="1.1" overflow="visible" width="74.999pt" height="74.997pt" viewBox="1418.76 -237.373 74.999 74.997">
 <defs>
  <linearGradient id="LinearGradient" gradientUnits="userSpaceOnUse" x1="0" y1="0" x2="86.043" y2="0" gradientTransform="translate(1490.38 164.766) rotate(134.365) skewX(-1.27086)">
   <stop offset="0" stop-color="#5dc5ff"/>
   <stop offset="1" stop-color="#375ee6"/>
  </linearGradient>
  <linearGradient id="LinearGradient_1" gradientUnits="userSpaceOnUse" x1="0" y1="0" x2="86.044" y2="0" gradientTransform="translate(1490.38 164.766) rotate(134.365) skewX(-1.26991)">
   <stop offset="0" stop-color="#5dc5ff"/>
   <stop offset="1" stop-color="#375ee6"/>
  </linearGradient>
  <style type="text/css">@import url('https://themes.googleusercontent.com/fonts/css?family=Open Sans:400,600');</style>
 </defs>
 <g id="inactive" transform="scale(1 -1)" stroke-width="0.501">
  <path d="M 1423.11,162.905 C 1422.58,163.537 1422.66,164.484 1423.29,165.02 C 1427.42,168.527 1429.51,171.604 1430.59,175.738 C 1431.69,179.971 1431.76,185.395 1431.57,193.841 C 1431.55,194.669 1432.21,195.356 1433.04,195.374 C 1433.86,195.393 1434.55,194.736 1434.57,193.908 C 1434.76,185.64 1434.72,179.72 1433.49,174.982 C 1432.22,170.114 1429.71,166.536 1425.23,162.731 C 1424.6,162.196 1423.65,162.274 1423.11,162.905 Z M 1434.67,162.905 C 1434.14,163.537 1434.21,164.484 1434.85,165.02 C 1438.98,168.527 1441.07,171.604 1442.14,175.738 C 1443.25,179.971 1443.32,185.395 1443.13,193.841 C 1443.11,194.669 1443.77,195.356 1444.59,195.374 C 1445.42,195.393 1446.11,194.736 1446.13,193.908 C 1446.31,185.64 1446.28,179.72 1445.05,174.982 C 1443.78,170.114 1441.27,166.536 1436.79,162.731 C 1436.15,162.196 1435.21,162.274 1434.67,162.905 Z M 1446.23,162.905 C 1445.69,163.537 1445.77,164.484 1446.4,165.02 C 1450.54,168.527 1452.63,171.604 1453.7,175.738 C 1454.44,178.558 1454.71,181.908 1454.76,186.324 C 1454.75,187.289 1454.75,188.288 1454.76,189.333 C 1454.75,190.731 1454.72,192.231 1454.69,193.841 C 1454.67,194.669 1455.32,195.356 1456.15,195.374 C 1456.19,195.374 1456.23,195.374 1456.26,195.372 C 1456.3,195.374 1456.33,195.374 1456.37,195.374 C 1457.2,195.356 1457.86,194.669 1457.84,193.841 C 1457.8,192.233 1457.77,190.734 1457.76,189.336 C 1457.77,188.286 1457.77,187.283 1457.76,186.314 C 1457.81,181.919 1458.08,178.572 1458.82,175.738 C 1459.9,171.606 1461.98,168.528 1466.12,165.02 C 1466.75,164.484 1466.83,163.537 1466.29,162.905 C 1465.76,162.274 1464.81,162.196 1464.18,162.731 C 1460.07,166.218 1457.62,169.515 1456.26,173.786 C 1454.9,169.513 1452.45,166.217 1448.34,162.731 C 1447.71,162.196 1446.77,162.274 1446.23,162.905 Z M 1475.74,162.731 C 1471.25,166.537 1468.74,170.116 1467.48,174.982 C 1466.23,179.749 1466.21,185.668 1466.4,193.908 C 1466.41,194.736 1467.1,195.393 1467.93,195.374 C 1468.76,195.356 1469.41,194.669 1469.39,193.841 C 1469.21,185.423 1469.27,180 1470.38,175.738 C 1471.45,171.606 1473.54,168.528 1477.68,165.02 C 1478.31,164.484 1478.39,163.537 1477.85,162.905 C 1477.32,162.274 1476.37,162.196 1475.74,162.731 Z M 1487.3,162.731 C 1482.81,166.537 1480.3,170.116 1479.03,174.982 C 1477.79,179.749 1477.77,185.668 1477.95,193.908 C 1477.97,194.736 1478.66,195.393 1479.49,195.374 C 1480.32,195.356 1480.97,194.669 1480.95,193.841 C 1480.76,185.423 1480.83,180 1481.94,175.738 C 1483.01,171.606 1485.1,168.528 1489.24,165.02 C 1489.87,164.484 1489.94,163.537 1489.41,162.905 C 1488.87,162.274 1487.93,162.196 1487.3,162.731 Z M 1418.76,206.463 L 1418.76,232.282 C 1418.76,235.092 1421.04,237.373 1423.85,237.373 L 1488.67,237.373 C 1491.48,237.373 1493.76,235.092 1493.76,232.282 L 1493.76,206.463 C 1493.76,203.653 1491.48,201.372 1488.67,201.372 L 1423.85,201.372 C 1421.04,201.372 1418.76,203.653 1418.76,206.463 Z M 1427.3,204.372 L 1427.3,208.197 C 1427.3,209.6 1428.44,210.737 1429.84,210.737 L 1482.85,210.737 C 1484.26,210.737 1485.39,209.6 1485.39,208.197 L 1485.39,204.372 L 1488.67,204.372 C 1489.82,204.372 1490.76,205.31 1490.76,206.463 L 1490.76,232.282 C 1490.76,233.436 1489.82,234.373 1488.67,234.373 L 1423.85,234.373 C 1422.7,234.373 1421.76,233.436 1421.76,232.282 L 1421.76,206.463 C 1421.76,205.31 1422.7,204.372 1423.85,204.372 L 1427.3,204.372 Z M 1482.39,204.372 L 1482.39,207.737 L 1430.3,207.737 L 1430.3,204.372 L 1482.39,204.372 Z" stroke-width="0.376" stroke="none" fill-rule="evenodd" marker-start="none" marker-end="none" fill="url(#LinearGradient)"/>
 </g>
 <g id="active-bg" transform="scale(1 -1)" stroke-width="0.501">
  <path d="M 1423.11,162.905 C 1422.58,163.537 1422.66,164.484 1423.29,165.02 C 1427.42,168.527 1429.51,171.604 1430.59,175.738 C 1431.69,179.971 1431.76,185.395 1431.57,193.841 C 1431.55,194.669 1432.21,195.356 1433.04,195.374 C 1433.86,195.393 1434.55,194.736 1434.57,193.908 C 1434.76,185.64 1434.72,179.72 1433.49,174.982 C 1432.22,170.114 1429.71,166.536 1425.23,162.731 C 1424.6,162.196 1423.65,162.274 1423.11,162.905 Z M 1434.67,162.905 C 1434.14,163.537 1434.21,164.484 1434.85,165.02 C 1438.98,168.527 1441.07,171.604 1442.14,175.738 C 1443.25,179.971 1443.32,185.395 1443.13,193.841 C 1443.11,194.669 1443.77,195.356 1444.59,195.374 C 1445.42,195.393 1446.11,194.736 1446.13,193.908 C 1446.31,185.64 1446.28,179.72 1445.05,174.982 C 1443.78,170.114 1441.27,166.536 1436.79,162.731 C 1436.15,162.196 1435.21,162.274 1434.67,162.905 Z M 1446.23,162.905 C 1445.69,163.537 1445.77,164.484 1446.4,165.02 C 1450.54,168.527 1452.63,171.604 1453.7,175.738 C 1454.44,178.558 1454.71,181.908 1454.76,186.324 C 1454.75,187.289 1454.75,188.288 1454.76,189.333 C 1454.75,190.731 1454.72,192.231 1454.69,193.841 C 1454.67,194.669 1455.32,195.356 1456.15,195.374 C 1456.19,195.374 1456.23,195.374 1456.26,195.372 C 1456.3,195.374 1456.33,195.374 1456.37,195.374 C 1457.2,195.356 1457.86,194.669 1457.84,193.841 C 1457.8,192.233 1457.77,190.734 1457.76,189.336 C 1457.77,188.286 1457.77,187.283 1457.76,186.314 C 1457.81,181.919 1458.08,178.572 1458.82,175.738 C 1459.9,171.606 1461.98,168.528 1466.12,165.02 C 1466.75,164.484 1466.83,163.537 1466.29,162.905 C 1465.76,162.274 1464.81,162.196 1464.18,162.731 C 1460.07,166.218 1457.62,169.515 1456.26,173.786 C 1454.9,169.513 1452.45,166.217 1448.34,162.731 C 1447.71,162.196 1446.77,162.274 1446.23,162.905 Z M 1475.74,162.731 C 1471.25,166.537 1468.74,170.116 1467.48,174.982 C 1466.23,179.749 1466.21,185.668 1466.4,193.908 C 1466.41,194.736 1467.1,195.393 1467.93,195.374 C 1468.76,195.356 1469.41,194.669 1469.39,193.841 C 1469.21,185.423 1469.27,180 1470.38,175.738 C 1471.45,171.606 1473.54,168.528 1477.68,165.02 C 1478.31,164.484 1478.39,163.537 1477.85,162.905 C 1477.32,162.274 1476.37,162.196 1475.74,162.731 Z M 1487.3,162.731 C 1482.81,166.537 1480.3,170.116 1479.03,174.982 C 1477.79,179.749 1477.77,185.668 1477.95,193.908 C 1477.97,194.736 1478.66,195.393 1479.49,195.374 C 1480.32,195.356 1480.97,194.669 1480.95,193.841 C 1480.76,185.423 1480.83,180 1481.94,175.738 C 1483.01,171.606 1485.1,168.528 1489.24,165.02 C 1489.87,164.484 1489.94,163.537 1489.41,162.905 C 1488.87,162.274 1487.93,162.196 1487.3,162.731 Z M 1418.76,206.463 L 1418.76,232.282 C 1418.76,235.092 1421.04,237.373 1423.85,237.373 L 1488.67,237.373 C 1491.48,237.373 1493.76,235.092 1493.76,232.282 L 1493.76,206.463 C 1493.76,203.653 1491.48,201.372 1488.67,201.372 L 1423.85,201.372 C 1421.04,201.372 1418.76,203.653 1418.76,206.463 Z" stroke-width="0.376" stroke="none" fill-rule="evenodd" marker-start="none" marker-end="none" fill="url(#LinearGradient_1)"/>
 </g>
 <g id="active-fg" transform="scale(1 -1)" stroke-width="0.501">
  <path d="M 1427.3,201.372 L 1427.3,208.197 C 1427.3,209.6 1428.44,210.737 1429.84,210.737 L 1482.85,210.737 C 1484.26,210.737 1485.39,209.6 1485.39,208.197 L 1485.39,201.372 L 1482.39,201.372 L 1482.39,207.737 L 1430.3,207.737 L 1430.3,201.372 L 1427.3,201.372 Z" fill="#ffffff" stroke="none" stroke-width="0.376" fill-rule="evenodd" marker-start="none" marker-end="none"/>
 </g>
</svg>
