<?xml version="1.0" standalone="no"?>
<!DOCTYPE svg PUBLIC "-//W3C//DTD SVG 1.1//EN" "http://www.w3.org/Graphics/SVG/1.1/DTD/svg11.dtd">
<!--Generator: Xara Designer (www.xara.com), SVG filter version: 6.7.0.0-->
<svg fill="none" fill-rule="evenodd" stroke="black" stroke-width="0.501" stroke-linejoin="bevel" stroke-miterlimit="10" font-family="Times New Roman" font-size="16" style="font-variant-ligatures:none" xmlns:xlink="http://www.w3.org/1999/xlink" xmlns="http://www.w3.org/2000/svg" version="1.1" overflow="visible" width="60.749pt" height="74.999pt" viewBox="949.967 -237.374 60.749 74.999">
 <defs>
  <linearGradient id="LinearGradient" gradientUnits="userSpaceOnUse" x1="0" y1="0" x2="78.479" y2="0" gradientTransform="translate(1007.97 164.765) rotate(128.387) skewX(-13.227)">
   <stop offset="0" stop-color="#5dc5ff"/>
   <stop offset="1" stop-color="#375ee6"/>
  </linearGradient>
  <linearGradient id="LinearGradient_1" gradientUnits="userSpaceOnUse" x1="0" y1="0" x2="78.479" y2="0" gradientTransform="translate(1007.97 164.765) rotate(128.387) skewX(-13.227)">
   <stop offset="0" stop-color="#5dc5ff"/>
   <stop offset="1" stop-color="#375ee6"/>
  </linearGradient>
 </defs>
 <g id="inactive" transform="scale(1 -1)">
  <path d="M 949.967,167.678 L 949.967,232.071 C 949.967,234.998 952.343,237.374 955.27,237.374 L 1005.41,237.374 C 1008.34,237.374 1010.72,234.998 1010.72,232.071 L 1010.72,167.678 C 1010.72,164.751 1008.34,162.375 1005.41,162.375 L 955.27,162.375 C 952.343,162.375 949.967,164.751 949.967,167.678 Z M 1007.72,167.678 L 1007.72,232.071 C 1007.72,233.341 1006.68,234.374 1005.41,234.374 L 955.27,234.374 C 953.999,234.374 952.967,233.341 952.967,232.071 L 952.967,167.678 C 952.967,166.407 953.999,165.375 955.27,165.375 L 1005.41,165.375 C 1006.68,165.375 1007.72,166.407 1007.72,167.678 Z M 970.384,180.179 C 968.274,181.516 966.518,183.202 965.144,185.113 C 967.654,186.917 971.408,186.551 973.413,184.016 C 976.956,179.533 983.999,179.54 987.538,184.016 C 989.564,186.578 993.377,186.925 995.887,185.054 C 990.058,177.011 978.887,174.788 970.384,180.179 Z M 975.766,185.877 C 972.793,189.638 967.353,190.241 963.588,187.687 C 960.707,193.443 960.825,200.524 964.52,206.353 C 970.125,215.195 981.852,217.822 990.694,212.217 C 999.018,206.939 1001.83,196.236 997.457,187.622 C 993.689,190.252 988.183,189.669 985.185,185.877 C 982.845,182.917 978.109,182.912 975.766,185.877 Z M 973.58,191.287 C 973.925,192.039 973.595,192.93 972.842,193.276 C 970.82,194.204 970.231,195.369 970.231,196.181 C 970.231,197.005 970.837,198.165 972.842,199.085 C 975.469,200.291 977.202,202.328 977.201,204.718 C 977.2,207.095 975.482,209.136 972.842,210.348 C 972.09,210.693 971.199,210.363 970.853,209.61 C 970.508,208.858 970.838,207.967 971.591,207.621 C 973.611,206.694 974.201,205.529 974.201,204.717 C 974.202,203.892 973.597,202.733 971.591,201.812 C 968.966,200.607 967.231,198.571 967.231,196.181 C 967.231,193.804 968.949,191.762 971.591,190.549 C 972.343,190.204 973.234,190.534 973.58,191.287 Z M 981.699,191.287 C 982.044,192.039 981.714,192.93 980.961,193.276 C 978.939,194.204 978.35,195.369 978.35,196.181 C 978.35,197.005 978.956,198.165 980.961,199.085 C 983.588,200.291 985.321,202.328 985.32,204.718 C 985.319,207.095 983.601,209.136 980.961,210.348 C 980.209,210.693 979.318,210.363 978.972,209.61 C 978.627,208.858 978.957,207.967 979.71,207.621 C 981.73,206.694 982.32,205.529 982.32,204.717 C 982.321,203.892 981.716,202.733 979.71,201.812 C 977.085,200.607 975.35,198.571 975.35,196.181 C 975.35,193.804 977.068,191.762 979.71,190.549 C 980.462,190.204 981.353,190.534 981.699,191.287 Z M 989.818,191.287 C 990.163,192.039 989.833,192.93 989.08,193.276 C 987.058,194.204 986.469,195.369 986.469,196.181 C 986.469,197.005 987.075,198.165 989.08,199.085 C 991.707,200.291 993.44,202.328 993.439,204.718 C 993.438,207.095 991.72,209.136 989.08,210.348 C 988.328,210.693 987.437,210.363 987.091,209.61 C 986.746,208.858 987.076,207.967 987.829,207.621 C 989.849,206.694 990.439,205.529 990.439,204.717 C 990.44,203.892 989.835,202.733 987.829,201.812 C 985.204,200.607 983.469,198.571 983.469,196.181 C 983.469,193.804 985.187,191.762 987.829,190.549 C 988.581,190.204 989.472,190.534 989.818,191.287 Z M 968.597,224.73 L 968.597,226.849 C 968.597,227.609 969.215,228.227 969.975,228.227 L 990.694,228.227 C 991.454,228.227 992.072,227.609 992.072,226.849 L 992.072,224.73 C 992.072,223.97 991.454,223.352 990.694,223.352 L 969.975,223.352 C 969.215,223.352 968.597,223.97 968.597,224.73 Z" stroke-width="0.376" fill-rule="evenodd" stroke="none" marker-start="none" marker-end="none" fill="url(#LinearGradient)"/>
 </g>
 <g id="active-bg" transform="scale(1 -1)">
  <path d="M 949.967,232.071 L 949.967,167.678 C 949.967,164.751 952.343,162.375 955.27,162.375 L 1005.41,162.375 C 1008.34,162.375 1010.72,164.751 1010.72,167.678 L 1010.72,232.071 C 1010.72,234.998 1008.34,237.374 1005.41,237.374 L 955.27,237.374 C 952.343,237.374 949.967,234.998 949.967,232.071 Z" stroke="none" stroke-width="0.376" fill-rule="evenodd" marker-start="none" marker-end="none" fill="url(#LinearGradient_1)"/>
 </g>
 <g id="active-fg" transform="scale(1 -1)">
  <path d="M 970.384,180.179 C 968.274,181.516 966.518,183.202 965.144,185.113 C 967.654,186.917 971.408,186.551 973.413,184.016 C 976.956,179.533 983.999,179.54 987.538,184.016 C 989.564,186.578 993.377,186.925 995.887,185.054 C 990.058,177.011 978.887,174.788 970.384,180.179 Z M 975.766,185.877 C 972.793,189.638 967.353,190.241 963.588,187.687 C 960.707,193.443 960.825,200.524 964.52,206.353 C 970.125,215.195 981.852,217.822 990.694,212.217 C 999.018,206.939 1001.83,196.236 997.457,187.622 C 993.689,190.252 988.183,189.669 985.185,185.877 C 982.845,182.917 978.109,182.912 975.766,185.877 Z M 973.58,191.287 C 973.925,192.039 973.595,192.93 972.842,193.276 C 970.82,194.204 970.231,195.369 970.231,196.181 C 970.231,197.005 970.837,198.165 972.842,199.085 C 975.469,200.291 977.202,202.328 977.201,204.718 C 977.2,207.095 975.482,209.136 972.842,210.348 C 972.09,210.693 971.199,210.363 970.853,209.61 C 970.508,208.858 970.838,207.967 971.591,207.621 C 973.611,206.694 974.201,205.529 974.201,204.717 C 974.202,203.892 973.597,202.733 971.591,201.812 C 968.966,200.607 967.231,198.571 967.231,196.181 C 967.231,193.804 968.949,191.762 971.591,190.549 C 972.343,190.204 973.234,190.534 973.58,191.287 Z M 981.699,191.287 C 982.044,192.039 981.714,192.93 980.961,193.276 C 978.939,194.204 978.35,195.369 978.35,196.181 C 978.35,197.005 978.956,198.165 980.961,199.085 C 983.588,200.291 985.321,202.328 985.32,204.718 C 985.319,207.095 983.601,209.136 980.961,210.348 C 980.209,210.693 979.318,210.363 978.972,209.61 C 978.627,208.858 978.957,207.967 979.71,207.621 C 981.73,206.694 982.32,205.529 982.32,204.717 C 982.321,203.892 981.716,202.733 979.71,201.812 C 977.085,200.607 975.35,198.571 975.35,196.181 C 975.35,193.804 977.068,191.762 979.71,190.549 C 980.462,190.204 981.353,190.534 981.699,191.287 Z M 989.818,191.287 C 990.163,192.039 989.833,192.93 989.08,193.276 C 987.058,194.204 986.469,195.369 986.469,196.181 C 986.469,197.005 987.075,198.165 989.08,199.085 C 991.707,200.291 993.44,202.328 993.439,204.718 C 993.438,207.095 991.72,209.136 989.08,210.348 C 988.328,210.693 987.437,210.363 987.091,209.61 C 986.746,208.858 987.076,207.967 987.829,207.621 C 989.849,206.694 990.439,205.529 990.439,204.717 C 990.44,203.892 989.835,202.733 987.829,201.812 C 985.204,200.607 983.469,198.571 983.469,196.181 C 983.469,193.804 985.187,191.762 987.829,190.549 C 988.581,190.204 989.472,190.534 989.818,191.287 Z M 968.597,224.73 L 968.597,226.849 C 968.597,227.609 969.215,228.227 969.975,228.227 L 990.694,228.227 C 991.454,228.227 992.072,227.609 992.072,226.849 L 992.072,224.73 C 992.072,223.97 991.454,223.352 990.694,223.352 L 969.975,223.352 C 969.215,223.352 968.597,223.97 968.597,224.73 Z" stroke="none" fill="#ffffff" stroke-linejoin="miter" stroke-width="1.7" marker-start="none" marker-end="none"/>
 </g>
</svg>
