<?xml version="1.0" standalone="no"?>
<!DOCTYPE svg PUBLIC "-//W3C//DTD SVG 1.1//EN" "http://www.w3.org/Graphics/SVG/1.1/DTD/svg11.dtd">
<!--Generator: Xara Designer (www.xara.com), SVG filter version: 6.7.0.0-->
<svg fill="none" fill-rule="evenodd" stroke="black" stroke-width="0.501" stroke-linejoin="bevel" stroke-miterlimit="10" font-family="Times New Roman" font-size="16" style="font-variant-ligatures:none" xmlns:xlink="http://www.w3.org/1999/xlink" xmlns="http://www.w3.org/2000/svg" version="1.1" overflow="visible" width="75pt" height="74.999pt" viewBox="480.798 -237.374 75 74.999">
 <defs>
  <linearGradient id="LinearGradient" gradientUnits="userSpaceOnUse" x1="0" y1="0" x2="68.234" y2="0" gradientTransform="translate(553.179 163.522) rotate(154.358) skewX(38.716)">
   <stop offset="0" stop-color="#5dc5ff"/>
   <stop offset="1" stop-color="#375ee6"/>
  </linearGradient>
  <linearGradient id="LinearGradient_1" gradientUnits="userSpaceOnUse" x1="0" y1="0" x2="46.474" y2="0" gradientTransform="translate(539.686 205.331) rotate(144.258) skewX(18.5155)">
   <stop offset="0" stop-color="#5dc5ff"/>
   <stop offset="1" stop-color="#375ee6"/>
  </linearGradient>
 </defs>
 <g id="Layer 1" transform="scale(1 -1)">
  <g id="Group">
   <rect x="480.799" y="162.376" width="74.999" height="74.999" stroke="none" stroke-width="0.596" stroke-linejoin="miter" stroke-linecap="round"/>
   <g id="Group_1">
    <rect x="480.8" y="162.376" width="74.999" height="36" rx="5.09120007586479" ry="5.09120007586479" stroke="none" stroke-width="0.376" fill-rule="evenodd" fill="url(#LinearGradient)"/>
    <rect x="504.786" y="182.048" width="27.025" height="7.353" rx="1.04" ry="1.04" stroke="#ffffff" stroke-width="3"/>
    <path d="M 500.931,204.477 C 493.426,208.816 493.428,217.786 500.931,222.124 C 506.436,225.309 506.437,231.392 500.931,234.576 C 500.214,234.991 499.969,235.909 500.383,236.625 C 500.798,237.342 501.716,237.587 502.432,237.173 C 509.936,232.834 509.936,223.868 502.432,219.527 C 496.928,216.344 496.926,210.258 502.432,207.074 C 503.149,206.66 503.394,205.741 502.98,205.025 C 502.566,204.308 501.647,204.063 500.931,204.477 Z M 517.547,204.477 C 510.042,208.816 510.044,217.786 517.547,222.124 C 523.052,225.309 523.053,231.392 517.547,234.576 C 516.83,234.991 516.585,235.909 516.999,236.625 C 517.414,237.342 518.332,237.587 519.048,237.173 C 526.552,232.834 526.552,223.868 519.048,219.527 C 513.544,216.344 513.542,210.258 519.048,207.074 C 519.765,206.66 520.01,205.741 519.596,205.025 C 519.182,204.308 518.263,204.063 517.547,204.477 Z M 534.163,204.477 C 526.658,208.816 526.66,217.786 534.163,222.124 C 539.668,225.309 539.669,231.392 534.163,234.576 C 533.446,234.991 533.201,235.909 533.615,236.625 C 534.03,237.342 534.948,237.587 535.664,237.173 C 543.168,232.834 543.168,223.868 535.664,219.527 C 530.16,216.344 530.158,210.258 535.664,207.074 C 536.381,206.66 536.626,205.741 536.212,205.025 C 535.798,204.308 534.879,204.063 534.163,204.477 Z" stroke-width="0.376" fill-rule="evenodd" stroke="none" marker-start="none" marker-end="none" fill="url(#LinearGradient_1)"/>
   </g>
  </g>
 </g>
</svg>
