<?xml version="1.0" standalone="no"?>
<!DOCTYPE svg PUBLIC "-//W3C//DTD SVG 1.1//EN" "http://www.w3.org/Graphics/SVG/1.1/DTD/svg11.dtd">
<!--Generator: Xara Designer (www.xara.com), SVG filter version: 6.7.0.0-->
<svg fill="none" fill-rule="evenodd" stroke="black" stroke-width="0.501" stroke-linejoin="bevel" stroke-miterlimit="10" font-family="Times New Roman" font-size="16" style="font-variant-ligatures:none" xmlns:xlink="http://www.w3.org/1999/xlink" xmlns="http://www.w3.org/2000/svg" version="1.1" overflow="visible" width="84.907pt" height="75pt" viewBox="475.845 -139.101 84.907 75">
 <defs>
	</defs>
 <g id="Layer 1" transform="scale(1 -1)">
  <g id="Group" stroke-linejoin="miter" stroke="none" stroke-width="0.441">
   <path d="M 481.433,64.101 C 478.385,64.101 475.845,66.578 475.845,69.69 C 475.845,70.769 476.035,71.595 476.607,72.548 L 513.44,136.243 C 514.393,138.022 516.298,139.101 518.266,139.101 C 520.299,139.101 522.14,138.022 523.158,136.243 L 559.991,72.548 C 560.499,71.595 560.752,70.769 560.752,69.69 C 560.752,66.578 558.211,64.101 555.1,64.101 L 481.433,64.101 Z" fill="#e31837" marker-start="none" marker-end="none"/>
   <path d="M 551.861,71.595 L 484.736,71.595 L 518.33,129.702 L 551.861,71.595 Z" fill="#ffffff" marker-start="none" marker-end="none"/>
   <path d="M 524.998,91.155 C 524.998,91.155 527.475,84.677 527.475,84.614 C 527.538,84.36 527.729,84.169 527.919,84.042 L 534.841,78.454 C 535.032,78.263 535.159,78.009 535.222,77.755 L 535.222,77.31 C 535.222,76.294 534.841,75.342 534.079,74.643 C 534.016,74.643 533.952,74.516 533.952,74.389 C 533.952,74.262 534.079,74.072 534.27,74.072 L 535.222,74.072 C 535.984,74.072 536.747,74.516 537.128,75.215 L 539.477,79.216 C 539.541,79.279 539.541,79.343 539.541,79.47 C 539.541,79.66 539.414,79.851 539.223,79.978 L 537.826,80.613 L 533,86.201 C 532.809,86.392 532.555,86.519 532.301,86.519 C 532.111,86.519 531.984,86.455 531.857,86.392 C 531.539,86.773 531.349,87.09 531.285,87.535 L 528.935,97.188 L 529.634,97.632 L 529.697,97.632 C 529.951,97.442 530.269,97.315 530.65,97.315 C 530.841,97.315 531.031,97.315 531.158,97.442 C 531.603,97.696 531.793,97.886 532.111,98.331 C 532.174,98.394 532.174,98.585 532.174,98.712 L 532.174,98.775 C 532.174,99.156 531.92,99.537 531.539,99.728 C 531.158,99.982 530.904,100.363 530.904,100.871 C 530.841,102.586 530.46,104.427 529.824,106.015 C 529.507,106.713 529.062,107.221 528.364,107.603 C 526.459,108.492 524.427,108.936 522.331,108.936 L 521.442,108.936 C 520.807,108.936 520.362,108.746 519.854,108.428 L 517.504,106.84 C 517.441,106.777 517.377,106.777 517.25,106.777 C 516.996,106.777 516.806,106.967 516.806,107.221 L 516.806,107.539 C 516.806,109.063 515.98,110.46 514.647,111.159 C 514.139,111.476 513.758,111.603 513.186,111.603 C 512.678,111.603 512.422,111.54 511.979,111.286 C 511.281,111.032 510.771,110.524 510.328,109.952 C 510.011,109.508 509.884,109 509.884,108.428 C 509.884,106.967 511.09,105.57 512.488,105.062 L 514.012,104.808 C 514.329,104.808 514.52,104.618 514.52,104.3 C 514.52,104.173 514.456,104.046 514.329,103.919 L 512.742,102.332 C 512.615,102.141 512.551,102.078 512.551,101.824 L 512.551,101.379 C 512.551,99.601 512.805,97.696 513.313,95.981 C 513.313,95.727 513.377,95.536 513.377,95.346 C 513.377,95.028 513.313,94.774 513.186,94.457 L 511.025,89.122 C 510.9,88.932 510.836,88.678 510.836,88.487 C 510.836,88.233 510.9,87.979 511.025,87.789 L 508.36,86.074 C 508.231,86.519 508.042,86.773 507.661,87.027 L 507.28,87.217 L 505.629,87.725 C 505.248,87.852 504.93,88.106 504.74,88.424 L 503.533,90.456 C 503.47,90.456 503.47,90.52 503.406,90.583 L 502.454,90.901 L 500.548,91.155 L 500.421,91.155 C 499.786,91.155 499.215,90.837 498.897,90.266 L 489.562,74.072 L 511.154,74.072 C 511.344,74.072 511.535,74.262 511.535,74.453 C 511.535,74.453 511.535,74.516 508.741,84.487 L 511.724,86.392 C 511.916,86.265 512.043,86.265 512.233,86.265 C 512.422,86.265 512.551,86.265 512.678,86.328 L 514.012,86.963 C 514.329,87.154 514.52,87.408 514.52,87.789 C 514.52,87.916 514.52,87.979 514.456,88.106 L 518.012,90.266 L 517.504,88.995 C 517.06,87.852 516.806,86.646 516.742,85.439 L 516.298,76.929 L 516.234,76.104 C 516.171,76.04 516.171,75.977 516.107,75.977 L 513.377,75.215 C 513.123,75.151 512.932,74.897 512.932,74.643 C 512.932,74.326 513.25,74.072 513.504,74.072 L 519.791,74.072 C 520.172,74.072 520.426,74.389 520.489,74.707 C 520.87,77.755 521.251,80.803 521.696,83.915 C 521.696,83.979 521.696,84.042 521.632,84.106 L 521.505,84.169 C 521.378,84.169 521.251,84.296 521.251,84.487 L 521.251,85.312 C 521.251,85.503 521.315,85.63 521.378,85.757 C 523.41,88.106 523.474,88.297 524.681,91.091 C 524.681,91.155 524.744,91.218 524.808,91.218 C 524.935,91.218 524.998,91.155 524.998,91.155 Z M 526.903,105.126 C 527.094,105.126 527.221,105.062 527.221,104.872 L 528.935,98.966 L 528.3,98.585 L 524.363,104.808 C 524.236,104.935 524.3,105.253 524.554,105.253 L 526.903,105.126 Z M 519.791,95.219 C 518.711,96.743 518.33,97.124 516.806,98.14 C 516.679,98.267 516.488,98.204 516.488,98.013 C 516.488,97.505 516.552,96.997 516.552,96.489 C 516.552,94.965 516.425,94.266 515.853,92.869 L 514.329,90.266 C 514.266,90.139 514.456,89.885 514.647,90.012 L 518.838,92.679 L 519.791,94.774 C 519.854,94.965 519.854,95.092 519.791,95.219 Z" fill="#231f20" marker-start="none" marker-end="none"/>
  </g>
 </g>
</svg>
