<?xml version="1.0" standalone="no"?>
<!DOCTYPE svg PUBLIC "-//W3C//DTD SVG 1.1//EN" "http://www.w3.org/Graphics/SVG/1.1/DTD/svg11.dtd">
<!--Generator: Xara Designer (www.xara.com), SVG filter version: 6.7.0.0-->
<svg fill="none" fill-rule="evenodd" stroke="black" stroke-width="0.501" stroke-linejoin="bevel" stroke-miterlimit="10" font-family="Times New Roman" font-size="16" style="font-variant-ligatures:none" xmlns:xlink="http://www.w3.org/1999/xlink" xmlns="http://www.w3.org/2000/svg" version="1.1" overflow="visible" width="61.812pt" height="75.001pt" viewBox="913.567 -117.812 61.812 75.001">
 <defs>
	</defs>
 <g id="Layer 1" transform="scale(1 -1)">
  <g id="Group" fill-rule="nonzero" stroke-linejoin="miter" stroke="none" stroke-width="0.967">
   <path d="M 913.567,64.257 L 926.201,42.824 L 938.451,64.251 L 913.567,64.257 Z" fill="#2dc8ff" marker-start="none" marker-end="none"/>
   <path d="M 951.079,42.811 L 938.451,64.251 L 926.201,42.824 L 951.079,42.811 Z M 938.263,85.679 L 925.817,85.683 L 913.567,64.257 L 938.451,64.251 L 944.573,74.961 L 938.263,85.679 Z" fill="#1fa2d1" marker-start="none" marker-end="none"/>
   <path d="M 963.329,64.238 L 957.011,74.961 L 944.573,74.961 L 938.451,64.251 L 951.079,42.811 L 963.329,64.238 Z" fill="#126fa4" marker-start="none" marker-end="none"/>
   <path d="M 952.713,89.198 L 952.718,89.206 L 952.713,89.198 Z M 944.573,74.961 L 969.069,117.807 L 956.623,117.812 L 938.255,85.683 L 944.573,74.961 Z" fill="#2dc8ff" marker-start="none" marker-end="none"/>
   <path d="M 944.573,74.961 L 952.742,89.248 L 959.052,78.53 L 957.011,74.961 L 944.573,74.961 Z M 969.069,117.807 L 975.379,107.089 L 973.362,103.561 L 960.929,103.569 L 969.069,117.807 Z" fill="#1fa2d1" marker-start="none" marker-end="none"/>
   <path d="M 960.929,103.569 L 967.24,92.852 L 965.174,89.239 L 952.742,89.248 L 960.929,103.569 Z" fill="#1fa2d1" marker-start="none" marker-end="none"/>
   <path d="M 960.929,103.569 L 973.362,103.561 L 967.24,92.852 L 960.929,103.569 Z M 952.742,89.248 L 965.174,89.239 L 959.052,78.53 L 952.742,89.248 Z" fill="#126fa4" marker-start="none" marker-end="none"/>
  </g>
 </g>
</svg>
